<?xml version="1.0" encoding="utf-8"?>
<!-- Generator: Adobe Illustrator 16.0.0, SVG Export Plug-In . SVG Version: 6.00 Build 0)  -->
<!DOCTYPE svg PUBLIC "-//W3C//DTD SVG 1.1//EN" "http://www.w3.org/Graphics/SVG/1.1/DTD/svg11.dtd">
<svg version="1.1" id="Layer_1" xmlns="http://www.w3.org/2000/svg" xmlns:xlink="http://www.w3.org/1999/xlink" x="0px" y="0px"
	 width="264.75px" height="78.5px" viewBox="0 0 264.75 78.5" enable-background="new 0 0 264.75 78.5" xml:space="preserve">
<g>
	<path fill-rule="evenodd" clip-rule="evenodd" fill="#404040" d="M34.544,36.598c0.197-0.003,0.398-0.011,0.607-0.027
		c4.754-0.359,5.859-2.338,6.313-4.84c0.498-2.747,0.505-3.704,1.263-3.957c0.556-0.185,0.673-0.8,0.631-1.515
		c-0.042-0.715-0.069-0.793-1.01-1.094c-0.736-0.237-4.771-0.583-7.804-0.42v0.741c2.382-0.11,4.683,0.161,5.363,0.563
		c1.561,0.921,1.259,5.344,0.042,7.534c-0.856,1.541-3.251,2.312-5.405,2.318V36.598z M25.403,26.174
		c-1.052,0.023-5.391-1.136-8.459-1.389c-0.199-0.016-0.404-0.03-0.614-0.041v0.741c2.477,0.115,5.04,0.642,5.958,1.868
		c1.515,2.02-0.926,6.945-3.241,8.039c-0.724,0.342-1.694,0.512-2.718,0.508v0.697c4.195,0.061,5.645-2.722,6.126-3.647
		c0.9-1.726,0.624-4.104,2.98-4.104s2.122,2.337,3.022,4.063c0.482,0.925,1.893,3.746,6.085,3.689V35.9
		c-1.024,0.003-1.994-0.167-2.717-0.509c-2.316-1.094-4.757-6.019-3.241-8.039c0.919-1.226,3.482-1.753,5.958-1.868v-0.741
		c-0.209,0.011-0.415,0.025-0.613,0.041C31.184,25.011,27.877,26.12,25.403,26.174z M16.33,24.745
		c-3.033-0.163-7.069,0.183-7.805,0.42c-0.941,0.301-0.968,0.379-1.01,1.094s0.076,1.33,0.631,1.515
		c0.757,0.252,0.765,1.209,1.263,3.957c0.454,2.501,1.559,4.481,6.313,4.84c0.208,0.016,0.411,0.025,0.607,0.027V35.9
		c-2.154-0.007-4.55-0.777-5.405-2.318c-1.216-2.189-1.519-6.613,0.042-7.534c0.68-0.402,2.982-0.673,5.364-0.563V24.745z"/>
	<path fill="#404040" d="M25.437,44.997c-0.678,1.35-1.672,2.412-3.333,3.282c-3.939,2.065-11.388,2.327-15.251-0.825
		c-1.045-0.853-1.69-2.282-1.631-3.63c0.055-1.235,0.747-2.298,1.828-2.795c0.847-0.39,2.097-0.388,2.696,0.237
		c0.305,0.32,0.412,0.788,0.276,1.196c-0.224-0.714-1.054-0.991-1.807-0.982c-2.175,0.025-2.75,3.749,0.988,4.164
		c2.389,0.265,3.653-1.432,5.736-3.353c1.636-1.508,3.17-3.135,5.51-3.238c2.221-0.098,3.8,0.785,4.988,2.7
		c1.188-1.915,2.767-2.797,4.988-2.7c2.34,0.103,3.875,1.73,5.51,3.238c2.083,1.921,3.347,3.618,5.736,3.353
		c3.737-0.415,3.163-4.139,0.987-4.164c-0.752-0.009-1.583,0.268-1.807,0.982c-0.136-0.408-0.028-0.876,0.277-1.196
		c0.599-0.625,1.849-0.627,2.696-0.237c1.081,0.497,1.773,1.56,1.828,2.795c0.06,1.348-0.586,2.777-1.631,3.63
		c-3.863,3.152-11.313,2.89-15.251,0.825C27.11,47.409,26.115,46.347,25.437,44.997z"/>
	<path fill-rule="evenodd" clip-rule="evenodd" fill="#404040" d="M13.558,44.235c-1.825,2.724-4.798,7.034-4,13.421
		c2.761-2.334,1.403,4.013,5.136,6.862c1.762-4.404,0.947,1.839,5.344,4.404c1.972-2.905,6.086,3.488,3.787,6.745
		c7.1-3.167,5.842-9.301,7.737-5.541c4.114-3.528,3.473-12.069,5.568-6.011c4.244-3.506,2.079-10.363,4.573-6.872
		c1.173-5.747-0.239-9.426-4.602-13.477c-0.6,2.565-4.377,7.116-7.571,8.124c-3.232,1.021-0.688-2.609-3.855-2.538
		c-3.168,0.073-1.099,3.155-3.387,2.72C18.508,51.355,15.243,47.726,13.558,44.235z"/>
	<path fill-rule="evenodd" clip-rule="evenodd" fill="#404040" d="M21.717,36.722c-0.694,0.59-0.694,2.319,0.666,2.631
		c1.359,0.312,1.521,0.878,2.995,0.878c1.557,0,1.691-0.492,2.995-0.803s1.414-2.17,0.666-2.706c0.345,0.626,0.441,1.837-0.862,2.15
		c-1.305,0.312-1.168,0.6-2.726,0.6c-1.473,0-1.512-0.288-2.743-0.618C21.477,38.522,21.427,37.312,21.717,36.722z"/>
	<g>
		<g>
			<path fill-rule="evenodd" clip-rule="evenodd" fill="#B4B4B4" d="M21.065,39.836c1.619-0.046,2.765,1.091,3.458,1.976
				c-0.791-0.547-1.969-1.403-3.458-1.517V39.836L21.065,39.836z M21.065,47.612v-0.598c1.482-0.878,2.534-1.873,3.169-2.416
				C23.702,45.385,22.659,46.63,21.065,47.612L21.065,47.612z M21.065,45.828c0.818-0.469,1.507-0.995,2.031-1.48
				c-0.47,0.206-1.167,0.57-2.031,0.96V45.828L21.065,45.828z M21.065,43.882v-0.398c0.671,0.073,1.31,0.212,1.917,0.322
				C22.393,43.848,21.761,43.841,21.065,43.882L21.065,43.882z M21.065,42.194c1.127,0.087,2.107,0.448,2.882,0.867
				c-0.796-0.557-1.772-1.051-2.882-1.255V42.194z M18.183,41.044c1.088-0.848,2.048-1.185,2.882-1.208v0.459
				C20.204,40.229,19.239,40.411,18.183,41.044L18.183,41.044z M21.065,41.806v0.388c-1.557-0.119-3.391,0.286-5.341,1.791
				c-3.362,2.594-6.61,4.517-9.356,1.094c2.978,2.882,5.957,0.844,9.319-1.75C17.657,41.809,19.495,41.517,21.065,41.806
				L21.065,41.806z M21.065,43.484c-1.74-0.187-3.706,0.077-5.939,2.494c2.465-1.674,4.365-2.005,5.939-2.096V43.484L21.065,43.484z
				 M21.065,45.307c-1.959,0.884-4.781,1.901-7.782,1.501c3.026,0.962,5.788,0.161,7.782-0.98V45.307L21.065,45.307z M21.065,47.014
				c-2.449,1.451-6.075,2.585-10.951,0.851c4.968,2.099,8.573,1.215,10.951-0.252V47.014z"/>
			<path fill-rule="evenodd" clip-rule="evenodd" fill="#B4B4B4" d="M32.69,41.044c-1.088-0.848-2.047-1.185-2.881-1.208v0.459
				C30.669,40.229,31.635,40.411,32.69,41.044L32.69,41.044z M29.809,47.612v-0.598c2.448,1.451,6.074,2.585,10.951,0.851
				C35.791,49.963,32.187,49.08,29.809,47.612L29.809,47.612z M29.809,45.828c1.994,1.142,4.755,1.942,7.781,0.98
				c-3,0.4-5.821-0.617-7.781-1.501V45.828L29.809,45.828z M29.809,43.882v-0.398c1.74-0.187,3.705,0.077,5.938,2.494
				C33.282,44.303,31.382,43.973,29.809,43.882L29.809,43.882z M29.809,42.194c1.556-0.119,3.39,0.286,5.34,1.791
				c3.362,2.594,6.611,4.517,9.356,1.094c-2.978,2.882-5.957,0.844-9.319-1.75c-1.97-1.52-3.808-1.812-5.377-1.522V42.194z
				 M29.809,39.836c-1.62-0.046-2.766,1.091-3.459,1.976c0.792-0.547,1.969-1.403,3.459-1.517V39.836L29.809,39.836z M29.809,41.806
				v0.388c-1.127,0.087-2.108,0.448-2.882,0.867C27.721,42.504,28.698,42.01,29.809,41.806L29.809,41.806z M29.809,43.484v0.398
				c-0.696-0.041-1.328-0.034-1.917-0.076C28.499,43.696,29.137,43.557,29.809,43.484L29.809,43.484z M29.809,45.307v0.521
				c-0.819-0.469-1.507-0.995-2.032-1.48C28.247,44.553,28.944,44.917,29.809,45.307L29.809,45.307z M29.809,47.014
				c-1.483-0.878-2.535-1.873-3.171-2.416c0.534,0.787,1.577,2.032,3.171,3.014V47.014z"/>
		</g>
		<path fill-rule="evenodd" clip-rule="evenodd" fill="#B4B4B4" d="M39.49,55.608v-1.791C39.575,54.451,39.576,55.077,39.49,55.608
			L39.49,55.608z M39.49,49.99c0.867,1.19,1.233,2.57,1.364,4.275c0.368-1.719-0.027-3.108-1.364-4.304V49.99z M39.49,49.96v0.029
			c-0.021-0.028-0.042-0.057-0.064-0.086C39.448,49.923,39.469,49.941,39.49,49.96L39.49,49.96z M39.49,53.817v1.791
			c-0.038,0.233-0.092,0.449-0.165,0.638c0.11-1.206-0.284-3.461-0.87-4.835v-0.345C39.003,51.756,39.354,52.797,39.49,53.817
			L39.49,53.817z M38.456,60.323c0.551-1.643,0.576-3.321,0-4.547V60.323z M38.456,51.065v0.345
			c-0.133-0.31-0.274-0.575-0.423-0.773C38.185,50.757,38.326,50.902,38.456,51.065L38.456,51.065z M38.456,55.776v4.547
			c-0.23,0.685-0.552,1.364-0.96,2.002c0.806-2.553,1.075-5.777,0.403-7.39C38.124,55.181,38.309,55.464,38.456,55.776
			L38.456,55.776z M32.197,67.037v-0.155c1.306-2.669,1.665-5.199,1.537-7.243C34.621,61.722,34.342,64.31,32.197,67.037
			L32.197,67.037z M32.197,61.117c0.264-1.299,0.294-2.678,0-3.788V61.117L32.197,61.117z M32.197,52.997v-0.75
			c0.559-0.421,1.144-0.948,1.805-1.609C33.387,51.772,32.803,52.527,32.197,52.997L32.197,52.997z M34.528,53.028
			c0.94,1.612,1.197,5.206,0.952,7.417C36.251,58.233,36.091,54.64,34.528,53.028z M26.479,59.773
			c0.463-2.881-0.077-5.655-0.538-7.209C27.039,53.99,27.949,56.69,26.479,59.773L26.479,59.773z M32.197,52.247v0.75
			c-0.834,0.649-1.709,0.761-2.763,0.596C30.435,53.342,31.281,52.937,32.197,52.247L32.197,52.247z M32.197,57.329v3.788
			c-0.32,1.575-0.982,3.033-1.822,3.761c1.185-1.881,1.86-7.121,1.209-8.867C31.861,56.373,32.063,56.823,32.197,57.329
			L32.197,57.329z M32.197,66.881v0.155c-0.068,0.087-0.138,0.173-0.21,0.26C32.059,67.158,32.129,67.02,32.197,66.881
			L32.197,66.881z M22.968,66.122v-0.055c0.049,0.053,0.1,0.105,0.151,0.155C23.068,66.189,23.018,66.156,22.968,66.122
			L22.968,66.122z M22.968,60.144v-3.283c0.14-0.767,0.375-1.481,0.688-2.06c-0.533,2.014-0.315,6.406,0.94,8.062
			C23.729,62.35,23.206,61.33,22.968,60.144L22.968,60.144z M28.225,62.997c0.296-2.015,0.301-5.374,0.135-7.389
			C29.342,57.532,29.017,60.909,28.225,62.997L28.225,62.997z M26.21,71.999c2.652-2.774,2.36-6.123,0.806-9.405
			C27.419,65.953,27.553,69.312,26.21,71.999z M22.968,56.861v3.283C22.759,59.102,22.772,57.931,22.968,56.861L22.968,56.861z
			 M22.968,66.066c-1.531-1.638-2.323-4.663-1.864-6.293c-1.206,1.649-0.525,4.725,1.864,6.349V66.066L22.968,66.066z
			 M19.089,66.224v-0.279c0.077,0.201,0.167,0.384,0.269,0.544C19.262,66.407,19.173,66.318,19.089,66.224L19.089,66.224z
			 M19.089,56.295v-0.552c0.727,0.696,1.539,1.273,2.418,1.612C20.53,57.161,19.73,56.786,19.089,56.295L19.089,56.295z
			 M19.089,53.738v-0.673c0.602,0.425,1.206,0.729,1.881,0.897C20.245,54.013,19.626,53.937,19.089,53.738z M19.089,53.064v0.673
			c-1.198-0.443-1.995-1.495-2.687-3.101C17.418,51.653,18.252,52.475,19.089,53.064L19.089,53.064z M19.089,55.743
			c-0.715-0.685-1.348-1.485-1.881-2.285c0.295,1.063,0.902,2.086,1.881,2.837V55.743L19.089,55.743z M19.089,65.945v0.279
			c-1.419-1.584-1.311-4.676-0.095-6.451C18.634,61.449,18.458,64.299,19.089,65.945L19.089,65.945z M13.973,61.144V56.16
			c0.174-0.533,0.402-1.04,0.683-1.493c-0.537,2.15-0.807,5.509-0.269,7.255C14.224,61.69,14.087,61.428,13.973,61.144
			L13.973,61.144z M13.973,51.883v-0.308c0.129-0.135,0.268-0.269,0.414-0.401C14.24,51.405,14.102,51.642,13.973,51.883
			L13.973,51.883z M16.94,61.519c-0.541-2.552-0.307-4.729,0.134-6.314C15.833,56.79,15.56,58.966,16.94,61.519z M13.973,51.575
			v0.308c-0.85,1.592-1.313,3.44-1.147,5.656C12.056,55.179,12.383,53.235,13.973,51.575L13.973,51.575z M13.973,56.16
			c-0.543,1.663-0.561,3.589,0,4.984V56.16L13.973,56.16z M10.76,55.474c0-1.747,0.806-4.165,1.478-5.24
			C10.808,51.309,10.204,53.727,10.76,55.474z"/>
	</g>
	<path fill-rule="evenodd" clip-rule="evenodd" fill="#404040" d="M33.514,3.427c2.628,2.855,5.915,13.231,5.915,13.231
		c-1.922,0.669-3.896,1.236-5.915,1.663V7.051c1.877,3.542,3.651,7.679,4.057,8.674c-0.118-0.781-2.921-7.626-3.814-9.574
		c-0.075-0.163-0.156-0.315-0.243-0.46V3.427L33.514,3.427z M33.514,18.57v3.112c9.873-1.509,13.553-5.379,12.716-6.259
		C45.427,14.577,41.825,17.324,33.514,18.57z M4.632,15.76c1.331-0.783,7.224,2.884,18.186,3.343
		c-3.199-0.234-6.474-0.914-9.81-2.163c0,0,3.541-12.535,6.408-13.716c2.868-1.18,4.385,1.574,6.578,1.574
		c2.079,0,3.766-2.53,6.464-2.079c0.332,0.055,0.688,0.308,1.056,0.708v2.265c-0.958-1.584-2.644-2.055-4.057-1.163
		c1.181-0.165,2.948,0.48,3.716,1.889c0.114,0.208,0.228,0.42,0.341,0.633v11.27c-1.7,0.359-3.431,0.62-5.192,0.759
		c1.905-0.095,3.631-0.276,5.192-0.51v3.112c-2.733,0.418-5.939,0.655-9.656,0.598C7.162,22.023,3.127,16.646,4.632,15.76z"/>
</g>
<g>
	<path fill="#FF9C00" d="M84.975,29.034c-0.901,3.491-1.651,6.457-2.44,9.459c-0.976,3.791-2.214,7.995-3.34,11.937
		c-0.601,0.075-2.666,0.075-5.331,0.075c-1.464-4.542-2.59-8.07-3.979-13.363H69.66c-1.464,4.729-3.04,9.384-4.392,13.288
		c-0.751,0.075-3.153,0.075-5.33,0.075c-1.014-4.317-1.877-8.07-2.74-12.049c-0.676-2.965-1.314-6.156-1.915-9.271
		c-0.038-0.15-0.112-0.188-0.188-0.188l-1.839-0.075c0-1.051,0-2.177,0.038-3.191c1.351,0,3.228,0,4.692,0c2.29,0,4.805,0,6.832,0
		c0,1.014,0,2.177-0.038,3.229l-2.628,0.075c0.188,1.952,0.451,4.504,0.713,6.494c0.338,2.777,0.676,5.48,1.014,8.333h0.338
		c0.826-3.003,3.528-13.476,4.316-16.516c0.676-0.113,3.679-0.15,4.917-0.113c0.788,3.266,3.153,12.65,4.054,16.591h0.338
		c0.413-2.553,0.826-5.067,1.088-6.832c0.263-1.952,0.751-5.255,1.051-7.77c0.038-0.113,0-0.188-0.113-0.188l-2.439-0.075
		c0-1.051,0-2.252,0.037-3.229c1.802,0,3.866,0,5.856,0c1.126,0,2.44,0,3.491,0c0,0.976,0,2.177-0.038,3.229L84.975,29.034z"/>
	<path fill="#FF9C00" d="M88.684,47.051l1.802-0.112c0.075,0,0.15-0.075,0.15-0.15c0-5.743,0-13.1,0-18.693l-2.402-0.075
		c0-1.051,0.038-2.215,0.075-3.191c2.14-0.188,8.071-0.976,8.446-0.976c0.075,0,0.113,0.038,0.113,0.15
		c0,3.116-0.113,7.282-0.15,11.111l0.188,0.038c3.679-1.802,4.317-1.915,5.781-1.915c1.576,0,3.528,1.501,4.429,3.078
		c0.375,0.676,0.563,1.577,0.563,2.778c0,2.327-0.075,5.255-0.113,7.845l1.915,0.075c0,1.014,0,2.14-0.038,3.116
		c-1.351,0-3.153,0-4.617,0c-1.577,0-3.378,0.038-4.805,0.038c0-0.976,0-2.064,0.037-3.116l1.314-0.075
		c0.075-0.038,0.113-0.113,0.113-0.188c0.037-1.651,0-4.016,0-5.48c0-1.464,0.037-2.402-0.338-3.041
		c-0.338-0.525-0.751-0.75-1.464-0.75c-0.863,0-1.99,0.488-2.891,1.088c-0.038,2.29-0.075,6.043-0.075,8.333l1.727,0.112
		c0,1.014,0,2.102-0.075,3.078c-1.389,0-3.266,0-4.955,0c-1.539,0-3.304,0.038-4.768,0.038
		C88.646,49.153,88.646,48.027,88.684,47.051z"/>
	<path fill="#FF9C00" d="M111.051,37.442c0-1.013,0.038-2.177,0.075-3.19c2.027-0.15,8.108-1.014,8.408-1.014
		c0.075,0,0.075,0.038,0.075,0.113c-0.038,4.054-0.113,9.834-0.113,13.588l2.064,0.075c0,1.051,0,2.102,0,3.116
		c-1.426,0-3.566,0-5.18,0c-1.577,0-3.566,0.038-5.105,0.038c0-1.014,0-2.14,0.038-3.116l1.989-0.075
		c0.112-0.038,0.15-0.113,0.15-0.188v-9.234L111.051,37.442z M119.497,27.645c0,2.027-1.651,3.378-3.528,3.378
		c-1.614,0-3.266-1.389-3.266-3.303c0-1.577,1.389-3.116,3.453-3.116C118.333,24.604,119.497,26.068,119.497,27.645z"/>
	<path fill="#FF9C00" d="M140.139,44.048c-0.45,1.99-0.976,4.092-1.501,6.119c-0.601,0-4.241-0.038-6.756-0.038h-4.767
		c-0.563,0-2.665,0-3.303,0c-0.3-0.788-0.676-1.952-0.938-2.815c3.341-3.604,6.043-6.306,10.06-10.435l-0.038-0.15
		c-0.788,0-3.19-0.038-3.866-0.038c-0.675,0-0.826,0.263-0.976,0.601l-1.089,2.965c-1.201-0.188-2.44-0.413-3.453-0.638
		c0.375-2.027,0.788-4.091,1.239-6.081c0.413,0,1.802,0.038,4.129,0.075c2.928,0,6.381,0,9.797,0
		c0.413,1.276,0.789,2.74,1.014,4.017c-1.539,1.839-7.958,7.77-9.497,9.196l0.075,0.15c0.713,0,2.14,0,4.017-0.038
		c0.676-0.038,1.126-0.3,1.314-0.713l1.201-2.965C137.962,43.485,139.126,43.786,140.139,44.048z"/>
	<path fill="#FF9C00" d="M158.904,44.048c-0.45,1.99-0.976,4.092-1.501,6.119c-0.601,0-4.242-0.038-6.756-0.038h-4.767
		c-0.563,0-2.665,0-3.303,0c-0.3-0.788-0.676-1.952-0.938-2.815c3.341-3.604,6.043-6.306,10.06-10.435l-0.037-0.15
		c-0.789,0-3.191-0.038-3.867-0.038c-0.675,0-0.826,0.263-0.976,0.601l-1.089,2.965c-1.201-0.188-2.44-0.413-3.453-0.638
		c0.375-2.027,0.788-4.091,1.239-6.081c0.413,0,1.802,0.038,4.129,0.075c2.928,0,6.381,0,9.797,0
		c0.413,1.276,0.789,2.74,1.014,4.017c-1.539,1.839-7.958,7.77-9.497,9.196l0.075,0.15c0.713,0,2.14,0,4.017-0.038
		c0.676-0.038,1.126-0.3,1.313-0.713l1.201-2.965C156.728,43.485,157.891,43.786,158.904,44.048z"/>
	<path fill="#FF9C00" d="M165.995,45.813c0.038,0.113,0.113,0.3,0.226,0.338c0.675,0.488,1.539,0.713,2.477,0.713
		c0.901,0,1.99-0.225,2.627-0.751c0.563-0.45,0.901-1.126,0.901-2.027c0-1.877-0.938-2.252-3.867-3.341
		c-3.791-1.426-6.719-3.716-6.719-7.395c0-2.327,1.088-4.279,2.552-5.593c1.652-1.502,4.392-2.402,7.996-2.402
		c2.139,0,4.129,0.3,4.992,0.675c0.225,2.29,0.413,4.58,0.563,6.869c-1.164,0.188-2.552,0.338-3.866,0.488l-0.863-3.491
		c-0.038-0.112-0.075-0.188-0.15-0.263c-0.45-0.375-1.164-0.601-1.876-0.601c-0.901,0-1.652,0.225-2.252,0.676
		c-0.488,0.375-1.014,1.088-1.014,2.14c0,1.877,0.826,2.252,4.279,3.453c4.167,1.427,6.306,3.491,6.306,7.057
		c0,2.365-0.976,4.58-2.778,6.006s-4.279,2.14-7.92,2.14c-1.577,0-4.242-0.188-5.781-0.751c-0.3-2.365-0.563-4.692-0.826-6.981
		c1.201-0.263,2.665-0.526,3.941-0.676L165.995,45.813z"/>
	<path fill="#FF9C00" d="M181.118,55.948l1.802-0.15c0.075,0,0.15-0.113,0.15-0.188l0.038-18.093l-2.402-0.075
		c0-1.013,0.038-2.102,0.075-3.078c1.802-0.188,7.47-1.164,7.658-1.164c0.075,0,0.075,0,0.075,0.075
		c0.15,0.676,0.263,1.389,0.413,2.064l0.226,0.038c3.791-2.027,4.241-2.14,5.78-2.14c3.116-0.038,5.743,3.491,5.706,7.395
		c0,1.727-0.413,3.453-1.126,5.03c-0.525,1.126-1.389,2.515-2.89,3.641c-0.751,0.563-2.515,1.201-4.017,1.201
		c-1.426,0-2.478-0.188-3.303-0.525l-0.263,0.075c0.038,1.877,0.038,3.792,0.038,5.706l3.078,0.075c0,1.051-0.038,2.14-0.075,3.116
		c-1.802,0-4.054,0-6.043,0.038c-1.501,0-3.491,0-4.955,0.037C181.081,58.012,181.081,56.923,181.118,55.948z M193.655,38.568
		c-0.3-0.451-0.788-0.976-1.501-0.976c-0.751,0-1.839,0.375-2.928,1.051c-0.038,2.102-0.075,5.067-0.075,7.169
		c0,0.751,1.501,1.314,2.29,1.314c0.676,0,1.464-0.263,1.915-0.976c0.525-0.788,0.863-2.102,0.863-4.091
		C194.219,40.295,193.993,39.094,193.655,38.568z"/>
	<path fill="#FF9C00" d="M212.795,48.853c-2.252,1.126-4.017,1.652-5.443,1.652c-1.989,0-4.88-1.99-4.88-4.354
		c0-2.102,2.478-5.668,8.446-5.668c0.826,0,1.426,0,1.802,0c0.113-1.877-0.563-2.965-2.252-2.965c-1.276,0-3.266,1.051-4.73,2.102
		c-0.713-0.826-1.389-1.764-1.989-2.703c2.703-2.177,5.518-3.679,9.084-3.679c2.89,0,5.743,2.44,5.743,5.63
		c0,2.478-0.038,6.006-0.075,7.62c0,0.225,0,0.3,0.188,0.3l1.99-0.113c0,0.976,0.038,2.103,0,3.078
		c-0.601,0.226-3.266,0.751-6.269,0.751c-0.375-0.338-0.863-0.938-1.426-1.652H212.795z M210.168,46.901
		c0.976,0,1.952-0.488,2.515-0.826c0.075-0.075,0.075-0.188,0.075-0.225c0-0.901,0-1.614,0-2.59
		c-0.225-0.038-0.525-0.038-0.788-0.038c-2.44,0-3.529,1.088-3.529,2.215C208.441,46.338,209.417,46.901,210.168,46.901z"/>
	<path fill="#FF9C00" d="M233.211,33.238c1.352,0,3.266,0.375,4.167,0.901c0,1.164-1.164,3.792-1.914,4.204
		c-0.488-0.188-2.402-1.126-3.904-1.126c-0.826,0-1.539,0.263-2.102,1.164c-0.563,0.976-0.751,2.102-0.751,3.792
		c0,1.802,0.488,2.815,1.164,3.604c0.638,0.75,1.764,0.9,2.515,0.9c1.501,0,3.228-0.563,4.354-1.013
		c0.263,0.976,0.563,2.102,0.713,3.003c-2.44,1.314-5.405,1.839-6.944,1.839c-4.617,0-8.146-2.853-8.146-7.47
		C222.363,37.705,226.567,33.238,233.211,33.238z"/>
	<path fill="#FF9C00" d="M248.261,33.238c2.327,0,4.091,0.826,5.105,1.99c1.201,1.426,1.914,3.378,1.914,5.78
		c-0.038,0.563-1.727,2.177-2.027,2.215c-0.976,0.113-4.842,0.113-8.183,0.113c0.075,1.239,0.526,1.952,1.014,2.44
		c0.863,0.826,1.839,0.9,2.815,0.9c1.614,0,4.054-0.601,5.292-1.051c0.263,0.976,0.563,2.177,0.713,3.116
		c-2.215,1.013-5.518,1.764-7.32,1.764c-4.992,0-8.784-2.44-8.784-7.732C238.801,37.442,242.63,33.238,248.261,33.238z
		 M245.746,37.367c-0.45,0.75-0.713,1.464-0.676,2.965c1.314,0,3.153-0.038,4.242-0.075c0.226,0,0.338-0.15,0.338-0.413
		c0-0.788-0.15-1.764-0.413-2.327c-0.337-0.676-0.9-1.126-1.689-1.126C246.909,36.391,246.271,36.541,245.746,37.367z"/>
</g>
</svg>
