<?xml version="1.0" encoding="utf-8"?>
<!-- Generator: Adobe Illustrator 16.0.0, SVG Export Plug-In . SVG Version: 6.00 Build 0)  -->
<!DOCTYPE svg PUBLIC "-//W3C//DTD SVG 1.1//EN" "http://www.w3.org/Graphics/SVG/1.1/DTD/svg11.dtd">
<svg version="1.1" xmlns="http://www.w3.org/2000/svg" xmlns:xlink="http://www.w3.org/1999/xlink" x="0px" y="0px"
	 width="544.609px" height="144px" viewBox="0 0 544.609 144" enable-background="new 0 0 544.609 144" xml:space="preserve">
<g id="Bg">
</g>
<g id="overlay">
</g>
<g id="Layer_1">
	<path fill-rule="evenodd" clip-rule="evenodd" fill="#FFFFFF" d="M144,120c0,13.255-10.745,24-24,24H24c-13.255,0-24-10.745-24-24
		V24C0,10.745,10.745,0,24,0h96c13.255,0,24,10.745,24,24V120z"/>
	<g>
		<path fill="#FFFFFF" d="M216.563,99.423c-0.432,0.865-1.151,1.296-2.159,1.296h-4.607c-1.008,0-1.8-0.359-1.873-1.296
			l-2.446-34.99l-12.673,34.99c-0.358,0.938-1.151,1.296-2.159,1.296h-4.607c-1.01,0-1.729-0.359-1.873-1.296l-6.984-49.244
			c-0.288-0.865,0.073-1.296,1.081-1.296h6.839c1.008,0,1.657,0.359,1.728,1.367l2.88,28.873l0.216,12.598l3.815-12.598
			l10.946-28.873c0.358-0.936,1.078-1.367,2.016-1.367h4.462c0.938,0,1.512,0.431,1.585,1.367l2.376,28.873v12.598l4.031-12.598
			l11.447-28.873c0.504-0.936,1.153-1.367,2.161-1.367h4.68c0.863,0,1.224,0.431,0.647,1.296L216.563,99.423z"/>
		<path fill="#FFFFFF" d="M248.82,67.672h0.146c1.87-2.735,5.039-5.255,10.366-5.255c7.631,0,13.393,4.751,11.304,19.728
			l-1.08,7.559c-0.504,3.527,0.36,4.969,1.296,4.969h0.146c0.935,0,1.366,0.431,1.224,1.439l-0.432,3.169
			c-0.146,1.008-0.576,1.439-1.584,1.439h-0.434c-6.982,0-9.936-3.455-8.928-10.512l1.153-8.063
			c1.584-11.231-0.649-13.681-4.753-13.681c-5.471,0-8.998,3.242-10.151,11.52l-2.735,19.296c-0.145,1.008-0.576,1.439-1.584,1.439
			h-5.761c-1.008,0-1.439-0.431-1.296-1.439l7.129-50.398c0.144-1.008,0.647-1.441,1.655-1.441h5.761
			c1.008,0,1.366,0.434,1.224,1.441L248.82,67.672z"/>
		<path fill="#FFFFFF" d="M285.396,89.704c-0.504,3.527,0.359,4.969,1.297,4.969h0.143c0.938,0,1.369,0.431,1.224,1.439
			l-0.432,3.169c-0.143,1.008-0.576,1.439-1.584,1.439h-0.432c-6.984,0-9.935-3.455-8.927-10.512l3.6-25.486
			c0.143-1.008,0.646-1.441,1.654-1.441h5.762c1.008,0,1.368,0.434,1.223,1.441L285.396,89.704z M290.293,54.641
			c-0.146,1.008-0.576,1.441-1.584,1.441h-5.762c-1.008,0-1.438-0.434-1.293-1.441l0.862-5.759c0.146-1.008,0.649-1.441,1.657-1.441
			h5.758c1.008,0,1.369,0.434,1.224,1.441L290.293,54.641z"/>
		<path fill="#FFFFFF" d="M320.099,67.313c-0.144,1.008-0.504,1.8-1.151,2.735l-18.504,24.982h14.904
			c1.008,0,1.366,0.434,1.224,1.441l-0.432,2.808c-0.146,1.008-0.576,1.439-1.584,1.439h-23.471c-1.01,0-1.441-0.431-1.296-1.439
			l0.358-2.592c0.146-1.008,0.504-1.8,1.153-2.735l18.574-24.984h-13.967c-1.008,0-1.368-0.431-1.226-1.439l0.434-2.808
			c0.144-1.008,0.647-1.441,1.655-1.441h22.465c1.008,0,1.366,0.434,1.223,1.441L320.099,67.313z"/>
		<path fill="#FFFFFF" d="M350.771,67.313c-0.146,1.008-0.504,1.8-1.153,2.735l-18.504,24.982h14.903
			c1.008,0,1.369,0.434,1.224,1.441l-0.431,2.808c-0.144,1.008-0.577,1.439-1.585,1.439h-23.47c-1.008,0-1.439-0.431-1.297-1.439
			l0.361-2.592c0.143-1.008,0.504-1.8,1.15-2.735l18.577-24.984h-13.969c-1.008,0-1.366-0.431-1.224-1.439l0.432-2.808
			c0.145-1.008,0.648-1.441,1.656-1.441h22.463c1.008,0,1.369,0.434,1.224,1.441L350.771,67.313z"/>
		<path fill="#FFFFFF" d="M389.506,56.441c-0.288,0.577-1.226,0.361-1.872,0.146c-1.8-0.504-7.128-1.73-11.231-1.73
			c-7.704,0-10.15,4.322-10.584,7.416c-0.432,2.592,0.576,4.896,5.184,6.769l6.551,2.592c7.85,3.096,11.089,9.215,10.224,15.624
			c-1.224,8.784-9.646,14.327-20.662,14.327c-6.047,0-13.104-2.161-14.616-3.527c-0.431-0.434-0.431-0.792,0.146-1.873l1.585-3.023
			c0.285-0.577,1.223-0.361,1.942-0.146c1.8,0.504,7.632,1.73,11.808,1.73c6.263,0,10.801-2.738,11.305-6.696
			c0.504-3.457-2.234-6.12-5.616-7.561l-6.626-2.735c-6.551-2.735-10.797-7.2-9.719-14.616c1.296-9.431,10.008-15.12,19.584-15.12
			c6.335,0,13.174,2.449,14.327,3.527c0.504,0.361,0.432,0.722-0.143,1.873L389.506,56.441z"/>
		<path fill="#FFFFFF" d="M404.122,69.184c3.6-4.751,8.208-6.839,13.681-6.839c8.207,0,14.615,4.681,12.527,19.512
			c-2.089,14.975-9.865,19.728-18.216,19.728c-6.12,0-8.928-2.52-10.369-5.257h-0.143l-2.665,18.792
			c-0.143,1.008-0.574,1.439-1.582,1.439h-5.761c-1.008,0-1.439-0.432-1.296-1.439l5.831-41.543
			c0.434-3.023-0.358-4.247-1.296-4.247h-0.144c-1.008,0-1.368-0.431-1.224-1.441l0.432-3.166c0.146-1.008,0.649-1.441,1.657-1.441
			h0.431c5.977,0,7.848,2.233,7.992,5.904H404.122z M403.618,81.856c-1.366,9.792,1.8,13.678,8.135,13.678
			c4.969,0,8.354-2.447,9.938-13.678c1.582-10.873-0.938-13.462-6.192-13.462C409.091,68.394,404.986,72.28,403.618,81.856z"/>
		<path fill="#FFFFFF" d="M470.216,90.423c-0.432,3.026,0.434,4.25,1.368,4.25h0.146c0.936,0,1.366,0.431,1.224,1.439l-0.434,3.169
			c-0.143,1.008-0.574,1.439-1.582,1.439h-0.434c-5.975,0-7.92-2.231-8.063-5.904h-0.146c-3.6,4.753-8.208,6.841-13.678,6.841
			c-8.208,0-14.616-4.681-12.527-19.8c2.088-14.831,9.79-19.512,17.997-19.512c4.896,0,8.426,1.657,10.585,5.4h0.146l1.15-3.023
			c0.288-1.008,0.646-1.441,1.657-1.441h5.039c1.008,0,1.368,0.434,1.224,1.441L470.216,90.423z M444.729,81.856
			c-1.512,11.159,0.936,13.751,6.192,13.751c6.408,0,10.512-4.031,11.878-13.751c1.369-9.576-1.582-13.462-7.989-13.462
			C449.553,68.394,446.314,70.984,444.729,81.856z"/>
		<path fill="#FFFFFF" d="M506.361,70.049c-0.432,0.504-1.224,0.361-1.873,0.143c-1.366-0.504-3.67-1.798-6.839-1.798
			c-7.128,0-10.081,6.551-11.089,13.605c-1.008,7.273,0.216,13.535,7.2,13.535c2.808,0,5.112-1.008,7.416-1.797
			c0.864-0.289,1.584-0.361,1.872,0.143l1.151,2.304c0.36,0.647,0.36,1.223-0.288,1.873c-1.512,1.512-5.902,3.527-12.023,3.527
			c-13.102,0-15.406-9.216-13.967-19.655c1.512-10.584,6.408-19.584,20.158-19.584c4.824,0,9.073,2.231,10.369,3.527
			c0.432,0.434,0.574,0.938-0.216,1.873L506.361,70.049z"/>
		<path fill="#FFFFFF" d="M520.761,85.025c-0.288,6.047,1.296,10.509,7.632,10.509c2.808,0,5.615-0.862,8.711-1.797
			c1.512-0.434,1.657-0.146,1.873,0.143l1.15,2.304c0.361,0.647,0.361,1.223-0.288,1.873c-1.582,1.582-7.127,3.527-13.247,3.527
			c-13.319,0-15.623-9.143-14.254-19.224c1.584-11.088,7.127-20.016,18.789-20.016c8.712,0,14.762,5.039,13.25,15.48
			c-0.793,5.543-2.881,7.2-8.857,7.2H520.761z M532.712,78.976c2.231,0,2.88-0.288,3.169-2.447c0.576-4.249-1.369-8.135-5.185-8.135
			c-5.255,0-7.847,4.894-9.073,10.582H532.712z"/>
	</g>
	<g>
		<g opacity="0.2">
			<path fill-rule="evenodd" clip-rule="evenodd" d="M62.163,100.083c0.481,0.392,0.865,0.113,1.248-0.178
				c2.514-1.906,3.82-4.533,4.52-7.528c0.582-2.497,0.729-5.045,0.806-7.594c0.246-7.842,0.305-15.689,0.169-23.537
				c-0.063-3.511,0.524-6.835,2.438-9.839c1.774-2.788,4.23-4.731,7.354-5.809c1.248-0.429,1.564-0.226,1.579,1.108
				c0.052,4.244,0.084,8.482,0.088,12.727c0.012,7.569,0.015,15.14-0.012,22.71c-0.009,2.405-0.271,4.793-0.71,7.161
				c-0.888,4.779-3.79,7.949-8.104,9.813c-4.23,1.829-8.705,1.97-13.214,1.26c-0.82-0.129-1.708-0.103-2.394-0.711
				c0.529-0.396,0.777,0.282,1.222,0.322c1.326,0.109,2.646,0.334,3.974,0.464C61.489,100.489,61.986,100.666,62.163,100.083z"/>
			<path fill-rule="evenodd" clip-rule="evenodd" d="M47.483,97.459c0.047,0.035,0.09,0.069,0.137,0.108
				c0.104,0.327,0.303,0.541,0.667,0.563l0.008,0.006c0.023,0.346,0.264,0.42,0.552,0.439c0,0,0.002-0.011,0.002-0.008
				c0.003,0.408,0.301,0.391,0.581,0.399c0.029,0.048,0.048,0.1,0.052,0.152c-0.111,0.155,0.139,0.436-0.256,0.517
				c-1.834,0.383-3.695,0.61-5.553,0.639c-3.153,0.049-6.311,0.148-9.461-0.123l-0.032,0.031l-0.036-0.022
				c-0.093-0.177-0.204-0.213-0.336-0.039c-0.061-0.006-0.117-0.013-0.176-0.021c-0.151-0.232-0.372-0.353-0.626-0.48
				c-0.942-0.478-2.058-0.435-2.958-1.024c-0.584-0.384-1.153-0.832-1.92-0.778v0.005c-0.103-0.591-0.471-0.823-1.045-0.773
				c0,0,0.004-0.012,0.004-0.013c0.008-0.126-0.049-0.184-0.175-0.157l-0.003,0.004c0.023-0.219-0.123-0.232-0.278-0.229h0.002
				c-0.061-0.055-0.12-0.111-0.182-0.165c0,0,0.003,0.008,0.004,0.008c-0.028-0.852-0.467-1.302-1.319-1.342l-0.005-0.006
				c0.041-0.262-0.08-0.457-0.22-0.676c-0.861-1.369-1.826-2.711-2.154-4.322c-0.408-2.005-0.896-4.011-0.782-6.091
				c0.016-0.27,0.149-0.639-0.304-0.738c-0.016-1-0.051-1.996-0.051-2.995c0-10.49,0.009-20.976,0.016-31.464
				c0-0.223,0.021-0.442,0.029-0.665c0.254,0.253,0.143,0.576,0.146,0.866c0.015,0.984,0.005,1.968,0.005,3.116
				c0.239-0.422,0.162-0.705,0.163-0.969c0.008-1.6,0.029-3.199-0.01-4.798c-0.015-0.613,0.233-0.725,0.778-0.736
				c0.519-0.011,0.877,0.513,1.411,0.333h-0.002c0.086,0.173,0.224,0.179,0.381,0.113c0,0,0.015,0.006,0.015,0.007
				c0.016,0.197-0.486,0.68,0.251,0.48c0.289-0.08,0.508,0.028,0.641,0.227c0.243,0.367,0.547,0.406,0.919,0.291
				c0.239,0.608,0.696,0.922,1.337,0.986l-0.002,0.008c-0.002,0.207,0.142,0.223,0.294,0.223l-0.005-0.004
				c0.005,0.338,0.16,0.516,0.512,0.49l-0.005,0.004c0.056,0.057,0.112,0.113,0.171,0.17l-0.007-0.006
				c0.059,0.059,0.116,0.12,0.172,0.177c0,0-0.002-0.007-0.003-0.006c-0.017,0.237,0.1,0.344,0.334,0.338
				c0,0-0.009-0.004-0.009-0.003c0.054,0.059,0.109,0.116,0.163,0.177l0,0c0.006,0.147,0.024,0.288,0.219,0.293l0.008-0.006
				c-0.102,0.381,0.103,0.519,0.441,0.546l-0.001-0.003c0.028,0.377-0.129,0.79,0.187,1.111c0.852,0.867,1.191,1.985,1.647,3.073
				c0.78,1.853,0.974,3.777,0.979,5.735c0.023,6.181,0.008,12.362,0.011,18.543c0,0.276-0.004,0.554,0.028,0.83
				c0.224,1.956,0.208,3.907,0.002,5.864c-0.122,1.162,0.368,2.261,0.428,3.406c0,0.027,0.093,0.048,0.142,0.071
				c0.009,0.115,0.019,0.228,0.028,0.343c-0.15,0.453-0.304,0.908,0.098,1.321c0.024,0.113,0.048,0.229,0.071,0.346
				c-0.04,0.07-0.124,0.146-0.115,0.21c0.188,1.158,0.308,2.34,0.63,3.466c0.129,0.445,0.29,1.057,0.865,1.292v0.002
				c0.041,1.14,1.447,2.825,2.499,2.992l-0.003-0.003c0.696,0.665,1.523,0.782,2.419,0.557c0.433-0.108,1.061-0.008,0.973-0.778
				l0.03-0.018c0.432,0.125,0.606-0.09,0.647-0.485l0.013,0.004c0.127,0.027,0.183-0.033,0.187-0.153h-0.01
				c0.414,0.091,0.446-0.222,0.521-0.492l-0.017,0.019c0.115-0.009,0.174-0.07,0.179-0.186c0,0-0.015,0.019-0.012,0.019
				c0.112-0.008,0.173-0.07,0.176-0.184l-0.012,0.011c0.114-0.006,0.173-0.065,0.164-0.183l0.039,0.054l-0.045-0.05
				c0.121,0.004,0.179-0.047,0.148-0.175l0.01-0.036c0.733,0.091,0.653-0.469,0.724-0.908l0.003-0.002
				c0.553,0.068,0.522-0.3,0.495-0.667l0,0c0.241-0.077,0.35-0.247,0.335-0.499h-0.001c0.385-0.165,0.73-0.041,1.069,0.137
				l-0.025,0.041l0.018-0.043c-0.035,0.167-0.039,0.312,0.192,0.315l-0.014,0.049c0,0,0.023-0.045,0.021-0.045
				c0.052,0.712,0.319,1.248,1.102,1.37l-0.006,0.002c0.056,0.058,0.109,0.115,0.163,0.171v0.002
				c0.06,0.053,0.118,0.107,0.177,0.161c0.055,0.056,0.108,0.109,0.16,0.166C47.362,97.343,47.422,97.399,47.483,97.459z"/>
			<path fill-rule="evenodd" clip-rule="evenodd" d="M83.527,63.291c-0.022-4.004,0.287-7.923,2.163-11.543
				c1.936-3.73,4.924-5.842,9.162-6.253c2.853-0.273,5.701-0.269,8.555-0.269c7.346-0.001,14.693,0.044,22.041,0.073
				c1.884,0.008,2.051,0.223,1.486,2.028c-1.227,3.941-3.463,7.029-7.414,8.633c-1.272,0.516-2.606,0.744-3.977,0.728
				c-6.459-0.07-12.917-0.09-19.375,0.18c-2.048,0.084-4.089,0.23-6.076,0.805c-2.934,0.849-5.098,2.597-6.424,5.36
				C83.627,63.124,83.575,63.206,83.527,63.291z"/>
			<path fill-rule="evenodd" clip-rule="evenodd" d="M82.06,98.717c1.002-4.497,4.954-8.757,9.492-9.244
				c2.281,0.068,4.563,0.016,6.851,0.141c3.445,0.183,6.897-0.261,10.35-0.137c0.139,0.005,0.285,0.015,0.411-0.026
				c0.088-0.029,0.148-0.141,0.222-0.217c1.51-0.074,3.021-0.171,4.532-0.221c1.683-0.052,3.332-0.326,4.971-0.694
				c0.588-0.035,1.247,0.123,1.602-0.572l0.004,0.006c0.171,0.053,0.31,0.048,0.332-0.177l0.003,0.008
				c0.51,0.079,0.917-0.019,1.038-0.604l0.003-0.001c0.286-0.008,0.601,0.024,0.604-0.404l0.049,0.007c0,0-0.047-0.015-0.047-0.014
				c0.498,0.096,0.672-0.18,0.698-0.616l-0.002,0.012c0.058-0.061,0.119-0.117,0.178-0.176l-0.008,0.002
				c0.497-0.08,0.833-0.3,0.775-0.872l0.017-0.018c0.94,0.171,0.49-0.616,0.669-0.972l0.029,0.064l-0.032-0.062
				c0.124,0.033,0.345-0.073,0.363,0.087c0.163,1.362-0.01,2.725-0.437,3.981c-0.159,0.464-0.366,0.997-0.271,1.363
				c0.298,1.139-0.198,2.079-0.75,2.86c-0.465,0.659-0.572,1.227-0.485,1.937l0.006-0.008c-0.097,0.035-0.146,0.102-0.13,0.208
				c0,0,0.007,0.003,0.007,0.001c-0.454,0.105-0.544,0.427-0.492,0.833l-0.031-0.045l0.025,0.047
				c-0.387,0.029-0.554,0.332-0.728,0.608c-0.44,0.697-1.029,1.262-1.599,1.848c-0.396,0.402-1.027,0.574-1.188,1.207l-0.004-0.049
				c0,0,0,0.05,0,0.049c-0.964,0.123-1.772,0.876-2.835,0.662c-0.249-0.052-0.179,0.329-0.208,0.532
				c-0.711,0.195-1.434,0.328-2.17,0.388c-0.786-0.415-1.563,0.036-2.349,0.035c-9.194-0.017-18.39-0.011-27.587-0.013
				C82.263,100.464,82.132,100.339,82.06,98.717z"/>
			<path fill-rule="evenodd" clip-rule="evenodd" d="M99.598,67.614c4.074,0,8.151-0.032,12.228,0.012
				c3.361,0.037,6.376,1.193,8.953,3.308c1.963,1.611,3.607,3.521,4.273,6.088c0.392,1.507,0.093,1.959-1.455,1.964
				c-6.075,0.017-12.149,0.039-18.223,0.015c-2.827-0.013-5.662,0.14-8.481-0.163c-5.199-0.553-10.406-4.105-11.927-9.032
				c-0.064-0.211-0.144-0.421-0.193-0.638c-0.238-1.042,0.035-1.468,1.1-1.555c0.908-0.068,1.827-0.053,2.741-0.053
				c3.661-0.004,7.322-0.001,10.984-0.001C99.598,67.579,99.598,67.599,99.598,67.614z"/>
			<path fill-rule="evenodd" clip-rule="evenodd" d="M62.163,100.083c-0.177,0.583-0.674,0.406-1.037,0.369
				c-1.328-0.13-2.647-0.355-3.974-0.464c-0.444-0.04-0.692-0.718-1.222-0.322c-1.133,0.054-2.077-0.501-3.029-0.983
				c-1.355-0.693-2.61-1.537-3.616-2.709c0.552-1.075-0.324-0.875-0.868-0.973l0.018,0.006c-0.059-0.063-0.115-0.123-0.171-0.187
				l0.012,0.009c-0.054-0.061-0.106-0.122-0.161-0.184l-0.001-0.002c0.01-0.248,0.016-0.494-0.341-0.49l0.002,0.001
				c-0.019-0.73,0.104-1.52-0.81-1.868c-0.076-0.029-0.113-0.186-0.147-0.29c-0.25-0.732-0.499-1.461-0.757-2.186
				c-0.217-0.604-0.032-1.343-0.591-1.83c-0.236-0.568-0.328-1.186-0.342-1.784c-0.14-6.455-0.029-12.911,0.01-19.363
				c0.491-1.486,0.221-1.485,2.167-1.173c0.054,0.009,0.11-0.002,0.165-0.004l-0.007-0.005c0.065,0.161,0.197,0.183,0.347,0.158
				l-0.009-0.002c0.075,0.187,0.229,0.19,0.39,0.173c4.474,2.21,7.076,5.824,8.007,10.689c0.1,0.514,0.201,1.035,0.222,1.557
				c0.079,1.984,0.125,3.972,0.184,5.957c0.005,0.271,0.01,0.542,0.014,0.813c0.003,0.144,0.009,0.286,0.012,0.431
				c0.016,0.174,0.031,0.342,0.045,0.518c0.02,0.181,0.037,0.367,0.055,0.55c-0.191,0.244-0.086,0.533-0.118,0.8
				c-0.107,0.941,0.372,1.889,0.138,2.787c-0.331,1.256,0.646,2.171,0.68,3.348c0.015,0.581,0.246,1.407,0.909,1.843l-0.012-0.01
				c-0.06,1.184,0.885,1.929,1.29,2.908c0.075,0.182,0.341,0.125,0.533,0.098l-0.023,0.034l0.019-0.036
				c-0.048,0.279-0.044,0.526,0.341,0.519c0.099,0.089,0.195,0.178,0.292,0.271c0.209,0.31,0.619,0.625-0.159,0.896
				c0.587,0.271,1.062,0.176,1.535,0.13L62.163,100.083z"/>
			<path fill-rule="evenodd" clip-rule="evenodd" d="M33.406,89.146c-0.049-0.023-0.142-0.044-0.142-0.071
				c-0.06-1.145-0.55-2.244-0.428-3.406c0.206-1.957,0.222-3.908-0.002-5.864c-0.032-0.275-0.028-0.553-0.028-0.83
				c-0.003-6.181,0.013-12.362-0.011-18.543c-0.006-1.958-0.199-3.882-0.979-5.735c-0.456-1.087-0.796-2.206-1.647-3.073
				c-0.315-0.321-0.158-0.733-0.187-1.111c1.605,1.963,2.403,4.268,2.837,6.727c0.379,2.147,0.17,4.315,0.183,6.475
				c0.023,4.356,0.057,8.71,0.039,13.067C33.024,80.91,33.31,85.024,33.406,89.146z"/>
			<path fill-rule="evenodd" clip-rule="evenodd" d="M82.06,98.717c0.072,1.622,0.203,1.747,1.877,1.747
				c9.197,0.002,18.393-0.003,27.587,0.013c0.785,0.001,1.563-0.45,2.349-0.035c-2.508,0.373-5.034,0.233-7.554,0.239
				c-7.679,0.017-15.36-0.015-23.04-0.024c-0.027,0-0.056,0-0.08,0C81.616,100.627,81.382,100.229,82.06,98.717z"/>
			<path fill-rule="evenodd" clip-rule="evenodd" d="M34.212,100.151c3.15,0.271,6.308,0.172,9.461,0.123
				c1.857-0.028,3.719-0.256,5.553-0.639c0.395-0.081,0.145-0.362,0.256-0.517c0.219-0.051,0.312,0.184,0.493,0.216
				c-0.204,0.156-0.388,0.402-0.616,0.456c-0.806,0.198-1.62,0.383-2.44,0.468c-3.749,0.398-7.506,0.491-11.267,0.208
				C35.164,100.431,34.659,100.404,34.212,100.151z"/>
			<path fill-rule="evenodd" clip-rule="evenodd" d="M123.219,94.159c-0.087-0.71,0.021-1.278,0.485-1.937
				c0.552-0.782,1.048-1.721,0.75-2.86c-0.095-0.366,0.112-0.899,0.271-1.363c0.427-1.256,0.6-2.619,0.437-3.981
				c-0.019-0.16-0.239-0.054-0.363-0.087c0.2-0.417,0.4-0.831,0.6-1.248C125.388,86.656,125.209,90.583,123.219,94.159z"/>
			<path fill-rule="evenodd" clip-rule="evenodd" d="M21.671,83.322c0.453,0.1,0.319,0.469,0.304,0.738
				c-0.113,2.08,0.374,4.086,0.782,6.091c0.328,1.611,1.293,2.953,2.154,4.322c0.14,0.219,0.261,0.414,0.22,0.676
				c-1.512-1.562-2.331-3.467-2.745-5.57C21.978,87.514,21.688,85.434,21.671,83.322z"/>
			<path fill-rule="evenodd" clip-rule="evenodd" d="M109.385,89.234c-0.073,0.076-0.134,0.188-0.222,0.217
				c-0.126,0.041-0.272,0.031-0.411,0.026c-3.452-0.124-6.904,0.32-10.35,0.137c-2.288-0.125-4.569-0.073-6.851-0.141
				c0.248-0.152,0.528-0.167,0.803-0.169c5.38-0.004,10.759-0.006,16.138-0.008c0.175-0.018,0.349-0.029,0.523-0.047
				C109.138,89.245,109.262,89.24,109.385,89.234z"/>
			<path fill-rule="evenodd" clip-rule="evenodd" d="M58.336,95.275c-0.663-0.436-0.895-1.262-0.909-1.843
				c-0.033-1.177-1.011-2.092-0.68-3.348c0.234-0.897-0.245-1.846-0.138-2.787c0.032-0.267-0.073-0.557,0.118-0.8
				C56.885,89.492,57.29,92.444,58.336,95.275z"/>
			<path fill-rule="evenodd" clip-rule="evenodd" d="M28.128,97.818c0.767-0.054,1.336,0.394,1.92,0.778
				c0.9,0.589,2.016,0.546,2.958,1.024c0.254,0.128,0.475,0.249,0.626,0.48C31.653,99.685,29.771,99.044,28.128,97.818z"/>
			<path fill-rule="evenodd" clip-rule="evenodd" d="M24.159,46.011c-0.534,0.18-0.893-0.344-1.411-0.333
				c-0.545,0.011-0.793,0.123-0.778,0.736c0.039,1.599,0.018,3.198,0.01,4.798c-0.001,0.265,0.076,0.547-0.163,0.969
				c0-1.148,0.01-2.132-0.005-3.116c-0.004-0.291,0.107-0.613-0.146-0.866c-0.041-0.691-0.038-1.377,0.056-2.066
				c0.094-0.681,0.474-0.903,1.106-0.7C23.288,45.581,23.807,45.61,24.159,46.011z"/>
			<path fill-rule="evenodd" clip-rule="evenodd" d="M45.47,87.981c0.559,0.487,0.374,1.226,0.591,1.83
				c0.258,0.725,0.507,1.453,0.757,2.186c0.034,0.104,0.071,0.26,0.147,0.29c0.913,0.348,0.791,1.138,0.81,1.868
				c-1.303-1.522-1.7-3.412-2.146-5.282C45.559,88.581,45.521,88.281,45.47,87.981z"/>
			<path fill-rule="evenodd" clip-rule="evenodd" d="M119.089,98.86c0.161-0.633,0.793-0.805,1.188-1.207
				c0.569-0.586,1.158-1.151,1.599-1.848c0.174-0.276,0.341-0.579,0.728-0.608C121.735,96.708,120.646,98.01,119.089,98.86z"/>
			<path fill-rule="evenodd" clip-rule="evenodd" d="M34.983,96.125c-0.575-0.235-0.736-0.847-0.865-1.292
				c-0.322-1.126-0.441-2.309-0.63-3.466c-0.009-0.063,0.075-0.14,0.115-0.21C33.841,92.874,34.313,94.526,34.983,96.125z"/>
			<path fill-rule="evenodd" clip-rule="evenodd" d="M37.482,99.119c-1.052-0.167-2.458-1.852-2.499-2.992
				C35.716,97.208,36.485,98.26,37.482,99.119z"/>
			<path fill-rule="evenodd" clip-rule="evenodd" d="M60.147,98.271c-0.192,0.027-0.458,0.084-0.533-0.098
				c-0.405-0.979-1.35-1.725-1.29-2.908C58.933,96.268,59.54,97.265,60.147,98.271z"/>
			<path fill-rule="evenodd" clip-rule="evenodd" d="M40.871,98.894c0.088,0.77-0.54,0.67-0.973,0.778
				c-0.896,0.225-1.723,0.108-2.419-0.557C38.654,99.704,39.78,99.55,40.871,98.894z"/>
			<path fill-rule="evenodd" clip-rule="evenodd" d="M116.042,100.054c0.029-0.203-0.041-0.583,0.208-0.532
				c1.063,0.214,1.871-0.539,2.835-0.662C118.194,99.573,117.13,99.844,116.042,100.054z"/>
			<path fill-rule="evenodd" clip-rule="evenodd" d="M47.47,65.657c-0.055,0.002-0.111,0.014-0.165,0.004
				c-1.946-0.312-1.676-0.313-2.167,1.173c-0.02-0.566-0.199-1.291,0.352-1.584C46.153,64.899,46.851,65.301,47.47,65.657z"/>
			<path fill-rule="evenodd" clip-rule="evenodd" d="M25.136,95.155c0.853,0.04,1.291,0.49,1.319,1.342
				C25.912,96.151,25.472,95.704,25.136,95.155z"/>
			<path fill-rule="evenodd" clip-rule="evenodd" d="M62.151,100.084c-0.474,0.045-0.948,0.141-1.535-0.13
				c0.778-0.271,0.368-0.587,0.159-0.896C61.331,99.27,61.729,99.69,62.151,100.084z"/>
			<path fill-rule="evenodd" clip-rule="evenodd" d="M26.363,47.128c-0.372,0.116-0.676,0.078-0.919-0.29
				c-0.133-0.199-0.352-0.307-0.641-0.227c-0.737,0.199-0.235-0.284-0.251-0.48C25.218,46.354,25.842,46.647,26.363,47.128z"/>
			<path fill-rule="evenodd" clip-rule="evenodd" d="M48.417,95.001c0.544,0.097,1.42-0.102,0.868,0.973
				C48.929,95.711,48.62,95.403,48.417,95.001z"/>
			<path fill-rule="evenodd" clip-rule="evenodd" d="M46.808,96.784c-0.782-0.122-1.05-0.657-1.102-1.37
				C46.118,95.837,46.509,96.276,46.808,96.784z"/>
			<path fill-rule="evenodd" clip-rule="evenodd" d="M45.515,95.098c-0.339-0.178-0.685-0.302-1.069-0.137
				c0.12-0.27,0.274-0.692,0.501-0.66C45.278,94.347,45.392,94.778,45.515,95.098z"/>
			<path fill-rule="evenodd" clip-rule="evenodd" d="M27.7,48.116c-0.641-0.064-1.098-0.378-1.337-0.985
				C26.894,47.344,27.324,47.694,27.7,48.116z"/>
			<path fill-rule="evenodd" clip-rule="evenodd" d="M27.083,97.049c0.574-0.049,0.942,0.183,1.045,0.773
				C27.718,97.647,27.371,97.387,27.083,97.049z"/>
			<path fill-rule="evenodd" clip-rule="evenodd" d="M124.802,83.929c-0.179,0.355,0.271,1.143-0.669,0.972
				C124.288,84.529,124.518,84.211,124.802,83.929z"/>
			<path fill-rule="evenodd" clip-rule="evenodd" d="M120.489,87.747c-0.354,0.695-1.014,0.537-1.602,0.572
				C119.421,88.129,119.955,87.935,120.489,87.747z"/>
			<path fill-rule="evenodd" clip-rule="evenodd" d="M124.116,84.918c0.058,0.572-0.278,0.792-0.775,0.872
				C123.571,85.474,123.771,85.129,124.116,84.918z"/>
			<path fill-rule="evenodd" clip-rule="evenodd" d="M43.613,96.129c-0.07,0.439,0.01,1-0.724,0.908
				C43.077,96.69,43.317,96.387,43.613,96.129z"/>
			<path fill-rule="evenodd" clip-rule="evenodd" d="M33.532,90.81c-0.401-0.413-0.248-0.868-0.098-1.321
				C33.466,89.931,33.499,90.368,33.532,90.81z"/>
			<path fill-rule="evenodd" clip-rule="evenodd" d="M121.866,86.98c-0.121,0.585-0.528,0.682-1.038,0.604
				C121.174,87.384,121.521,87.182,121.866,86.98z"/>
			<path fill-rule="evenodd" clip-rule="evenodd" d="M123.173,85.952c-0.026,0.436-0.2,0.712-0.698,0.616
				C122.661,86.31,122.888,86.097,123.173,85.952z"/>
			<path fill-rule="evenodd" clip-rule="evenodd" d="M122.609,95.194c-0.052-0.407,0.038-0.728,0.492-0.833
				C123.015,94.683,122.876,94.975,122.609,95.194z"/>
			<path fill-rule="evenodd" clip-rule="evenodd" d="M44.111,95.46c0.027,0.367,0.058,0.735-0.495,0.667
				C43.729,95.867,43.871,95.625,44.111,95.46z"/>
			<path fill-rule="evenodd" clip-rule="evenodd" d="M41.549,98.391c-0.041,0.395-0.216,0.61-0.647,0.485
				C41.065,98.646,41.284,98.488,41.549,98.391z"/>
			<path fill-rule="evenodd" clip-rule="evenodd" d="M48.287,98.13c-0.364-0.021-0.563-0.236-0.667-0.563
				C47.842,97.756,48.063,97.94,48.287,98.13z"/>
			<path fill-rule="evenodd" clip-rule="evenodd" d="M28.499,48.833c-0.352,0.026-0.507-0.151-0.512-0.49
				C28.222,48.438,28.396,48.598,28.499,48.833z"/>
			<path fill-rule="evenodd" clip-rule="evenodd" d="M29.983,50.518c-0.339-0.027-0.543-0.165-0.441-0.546
				C29.777,50.082,29.894,50.289,29.983,50.518z"/>
			<path fill-rule="evenodd" clip-rule="evenodd" d="M49.43,98.966c-0.28-0.008-0.578,0.008-0.581-0.399
				C49.077,98.65,49.33,98.699,49.43,98.966z"/>
			<path fill-rule="evenodd" clip-rule="evenodd" d="M60.483,98.787c-0.385,0.007-0.389-0.24-0.341-0.519
				C60.381,98.356,60.425,98.577,60.483,98.787z"/>
			<path fill-rule="evenodd" clip-rule="evenodd" d="M42.259,97.75c-0.074,0.271-0.106,0.583-0.521,0.492
				C41.847,98.013,42.018,97.843,42.259,97.75z"/>
			<path fill-rule="evenodd" clip-rule="evenodd" d="M122.473,86.575c-0.003,0.429-0.317,0.396-0.604,0.404
				C122.023,86.774,122.217,86.626,122.473,86.575z"/>
			<path fill-rule="evenodd" clip-rule="evenodd" d="M48.847,98.575c-0.288-0.019-0.528-0.094-0.552-0.439
				C48.53,98.216,48.726,98.348,48.847,98.575z"/>
			<path fill-rule="evenodd" clip-rule="evenodd" d="M56.616,84.998c-0.004-0.271-0.009-0.542-0.014-0.813
				C56.681,84.454,56.702,84.727,56.616,84.998z"/>
			<path fill-rule="evenodd" clip-rule="evenodd" d="M47.772,94.153c0.356-0.003,0.351,0.243,0.341,0.49
				C47.931,94.528,47.82,94.363,47.772,94.153z"/>
			<path fill-rule="evenodd" clip-rule="evenodd" d="M29.161,49.511c-0.234,0.006-0.351-0.102-0.334-0.338
				C28.994,49.229,29.105,49.345,29.161,49.511z"/>
			<path fill-rule="evenodd" clip-rule="evenodd" d="M44.446,94.961c0.015,0.252-0.094,0.422-0.335,0.499
				C44.156,95.25,44.261,95.079,44.446,94.961z"/>
			<path fill-rule="evenodd" clip-rule="evenodd" d="M24.538,46.124c-0.157,0.066-0.295,0.06-0.381-0.113
				C24.286,46.044,24.458,45.925,24.538,46.124z"/>
			<path fill-rule="evenodd" clip-rule="evenodd" d="M109.016,89.249c-0.175,0.018-0.349,0.029-0.523,0.047
				C108.659,89.198,108.832,89.169,109.016,89.249z"/>
			<path fill-rule="evenodd" clip-rule="evenodd" d="M56.673,85.947c-0.014-0.176-0.029-0.344-0.045-0.518
				C56.726,85.592,56.744,85.764,56.673,85.947z"/>
			<path fill-rule="evenodd" clip-rule="evenodd" d="M45.699,95.411c-0.231-0.004-0.228-0.149-0.192-0.315
				C45.64,95.159,45.685,95.28,45.699,95.411z"/>
			<path fill-rule="evenodd" clip-rule="evenodd" d="M29.534,49.978c-0.194-0.005-0.213-0.146-0.219-0.293
				C29.39,49.78,29.462,49.876,29.534,49.978z"/>
			<path fill-rule="evenodd" clip-rule="evenodd" d="M48.19,65.981c-0.161,0.017-0.314,0.013-0.39-0.173
				C47.955,65.808,48.1,65.841,48.19,65.981z"/>
			<path fill-rule="evenodd" clip-rule="evenodd" d="M26.631,96.654c0.155-0.002,0.302,0.011,0.278,0.229
				C26.773,96.858,26.678,96.787,26.631,96.654z"/>
			<path fill-rule="evenodd" clip-rule="evenodd" d="M47.81,65.811c-0.149,0.024-0.281,0.002-0.347-0.158
				C47.602,65.653,47.738,65.662,47.81,65.811z"/>
			<path fill-rule="evenodd" clip-rule="evenodd" d="M27.992,48.347c-0.152,0-0.296-0.016-0.294-0.223
				C27.835,48.145,27.934,48.221,27.992,48.347z"/>
			<path fill-rule="evenodd" clip-rule="evenodd" d="M33.808,100.122c0.132-0.175,0.243-0.139,0.336,0.039
				C34.031,100.146,33.917,100.135,33.808,100.122z"/>
			<path fill-rule="evenodd" clip-rule="evenodd" d="M120.825,87.576c-0.022,0.225-0.161,0.23-0.332,0.177
				C120.565,87.619,120.692,87.592,120.825,87.576z"/>
			<path fill-rule="evenodd" clip-rule="evenodd" d="M47.483,97.459c-0.062-0.06-0.121-0.116-0.182-0.173
				C47.362,97.343,47.422,97.399,47.483,97.459z"/>
			<path fill-rule="evenodd" clip-rule="evenodd" d="M42.585,97.417c-0.003,0.114-0.063,0.176-0.176,0.184
				C42.466,97.539,42.524,97.477,42.585,97.417z"/>
			<path fill-rule="evenodd" clip-rule="evenodd" d="M123.349,85.788c-0.059,0.059-0.12,0.115-0.178,0.176
				C123.229,85.902,123.289,85.846,123.349,85.788z"/>
			<path fill-rule="evenodd" clip-rule="evenodd" d="M42.421,97.583c-0.005,0.116-0.063,0.177-0.179,0.186
				C42.301,97.708,42.362,97.647,42.421,97.583z"/>
			<path fill-rule="evenodd" clip-rule="evenodd" d="M48.264,94.82c0.056,0.063,0.112,0.123,0.171,0.187
				C48.376,94.943,48.319,94.884,48.264,94.82z"/>
			<path fill-rule="evenodd" clip-rule="evenodd" d="M48.114,94.646c0.055,0.063,0.107,0.123,0.161,0.184
				C48.222,94.769,48.169,94.708,48.114,94.646z"/>
			<path fill-rule="evenodd" clip-rule="evenodd" d="M26.912,96.879c0.126-0.027,0.183,0.03,0.175,0.157
				C27.028,96.985,26.971,96.931,26.912,96.879z"/>
			<path fill-rule="evenodd" clip-rule="evenodd" d="M41.748,98.242c-0.004,0.121-0.06,0.181-0.187,0.153
				C41.624,98.344,41.687,98.294,41.748,98.242z"/>
			<path fill-rule="evenodd" clip-rule="evenodd" d="M123.095,94.36c-0.017-0.107,0.033-0.173,0.13-0.208
				C123.182,94.22,123.137,94.29,123.095,94.36z"/>
			<path fill-rule="evenodd" clip-rule="evenodd" d="M29.315,49.685c-0.054-0.061-0.109-0.119-0.163-0.177
				C29.206,49.565,29.262,49.624,29.315,49.685z"/>
			<path fill-rule="evenodd" clip-rule="evenodd" d="M46.965,96.958c-0.054-0.057-0.107-0.114-0.163-0.171
				C46.857,96.844,46.911,96.901,46.965,96.958z"/>
			<path fill-rule="evenodd" clip-rule="evenodd" d="M28.83,49.178c-0.056-0.058-0.113-0.119-0.172-0.177
				C28.717,49.06,28.774,49.121,28.83,49.178z"/>
			<path fill-rule="evenodd" clip-rule="evenodd" d="M28.665,49.007c-0.059-0.057-0.115-0.113-0.171-0.17
				C28.55,48.894,28.606,48.95,28.665,49.007z"/>
			<path fill-rule="evenodd" clip-rule="evenodd" d="M26.451,96.489c0.062,0.054,0.121,0.11,0.182,0.165
				C26.572,96.599,26.513,96.543,26.451,96.489z"/>
			<path fill-rule="evenodd" clip-rule="evenodd" d="M47.142,97.121c-0.059-0.054-0.117-0.108-0.177-0.161
				C47.024,97.013,47.083,97.067,47.142,97.121z"/>
			<path fill-rule="evenodd" clip-rule="evenodd" d="M42.88,97.074c0.03,0.128-0.027,0.179-0.148,0.175
				C42.78,97.191,42.831,97.134,42.88,97.074z"/>
			<path fill-rule="evenodd" clip-rule="evenodd" d="M42.737,97.245c0.009,0.117-0.05,0.177-0.164,0.183
				C42.626,97.367,42.681,97.307,42.737,97.245z"/>
		</g>
		<g>
			<g>
				<path fill-rule="evenodd" clip-rule="evenodd" fill="#2482C1" d="M61.163,99.083c0.481,0.392,0.865,0.113,1.248-0.178
					c2.514-1.906,3.82-4.533,4.52-7.528c0.582-2.497,0.729-5.045,0.806-7.594c0.246-7.842,0.305-15.689,0.169-23.537
					c-0.063-3.511,0.524-6.835,2.438-9.839c1.774-2.788,4.23-4.731,7.354-5.809c1.248-0.429,1.564-0.226,1.579,1.108
					c0.052,4.244,0.084,8.482,0.088,12.727c0.012,7.569,0.015,15.14-0.012,22.71c-0.009,2.405-0.271,4.793-0.71,7.161
					c-0.888,4.779-3.79,7.949-8.104,9.813c-4.23,1.829-8.705,1.97-13.214,1.26c-0.82-0.129-1.708-0.103-2.394-0.711
					c0.529-0.396,0.777,0.282,1.222,0.322c1.326,0.109,2.646,0.334,3.974,0.464C60.489,99.489,60.986,99.666,61.163,99.083z"/>
				<path fill-rule="evenodd" clip-rule="evenodd" fill="#2382C1" d="M46.483,96.459c0.047,0.035,0.09,0.069,0.137,0.108
					c0.104,0.327,0.303,0.541,0.667,0.563l0.008,0.006c0.023,0.346,0.264,0.42,0.552,0.439c0,0,0.002-0.011,0.002-0.008
					c0.003,0.408,0.301,0.391,0.581,0.399c0.029,0.048,0.048,0.1,0.052,0.152c-0.111,0.155,0.139,0.436-0.256,0.517
					c-1.834,0.383-3.695,0.61-5.553,0.639c-3.153,0.049-6.311,0.148-9.461-0.123l-0.032,0.031l-0.036-0.022
					c-0.093-0.177-0.204-0.213-0.336-0.039c-0.061-0.006-0.117-0.013-0.176-0.021c-0.151-0.232-0.372-0.353-0.626-0.48
					c-0.942-0.478-2.058-0.435-2.958-1.024c-0.584-0.384-1.153-0.832-1.92-0.778v0.005c-0.103-0.591-0.471-0.823-1.045-0.773
					c0,0,0.004-0.012,0.004-0.013c0.008-0.126-0.049-0.184-0.175-0.157l-0.003,0.004c0.023-0.219-0.123-0.232-0.278-0.229h0.002
					c-0.061-0.055-0.12-0.111-0.182-0.165c0,0,0.003,0.008,0.004,0.008c-0.028-0.852-0.467-1.302-1.319-1.342l-0.005-0.006
					c0.041-0.262-0.08-0.457-0.22-0.676c-0.861-1.369-1.826-2.711-2.154-4.322c-0.408-2.005-0.896-4.011-0.782-6.091
					c0.016-0.27,0.149-0.639-0.304-0.738c-0.016-1-0.051-1.996-0.051-2.995c0-10.49,0.009-20.976,0.016-31.464
					c0-0.223,0.021-0.442,0.029-0.665c0.254,0.253,0.143,0.576,0.146,0.866c0.015,0.984,0.005,1.968,0.005,3.116
					c0.239-0.422,0.162-0.705,0.163-0.969c0.008-1.6,0.029-3.199-0.01-4.798c-0.015-0.613,0.233-0.725,0.778-0.736
					c0.519-0.011,0.877,0.513,1.411,0.333h-0.002c0.086,0.173,0.224,0.179,0.381,0.113c0,0,0.015,0.006,0.015,0.007
					c0.016,0.197-0.486,0.68,0.251,0.48c0.289-0.08,0.508,0.028,0.641,0.227c0.243,0.367,0.547,0.406,0.919,0.291
					c0.239,0.608,0.696,0.922,1.337,0.986l-0.002,0.008c-0.002,0.207,0.142,0.223,0.294,0.223l-0.005-0.004
					c0.005,0.338,0.16,0.516,0.512,0.49l-0.005,0.004c0.056,0.057,0.112,0.113,0.171,0.17l-0.007-0.006
					c0.059,0.059,0.116,0.12,0.172,0.177c0,0-0.002-0.007-0.003-0.006c-0.017,0.237,0.1,0.344,0.334,0.338
					c0,0-0.009-0.004-0.009-0.003c0.054,0.059,0.109,0.116,0.163,0.177l0,0c0.006,0.147,0.024,0.288,0.219,0.293l0.008-0.006
					c-0.102,0.381,0.103,0.519,0.441,0.546l-0.001-0.003c0.028,0.377-0.129,0.79,0.187,1.111c0.852,0.867,1.191,1.985,1.647,3.073
					c0.78,1.853,0.974,3.777,0.979,5.735c0.023,6.181,0.008,12.362,0.011,18.543c0,0.276-0.004,0.554,0.028,0.83
					c0.224,1.956,0.208,3.907,0.002,5.864c-0.122,1.162,0.368,2.261,0.428,3.406c0,0.027,0.093,0.048,0.142,0.071
					c0.009,0.115,0.019,0.228,0.028,0.343c-0.15,0.453-0.304,0.908,0.098,1.321c0.024,0.113,0.048,0.229,0.071,0.346
					c-0.04,0.07-0.124,0.146-0.115,0.21c0.188,1.158,0.308,2.34,0.63,3.466c0.129,0.445,0.29,1.057,0.865,1.292v0.002
					c0.041,1.14,1.447,2.825,2.499,2.992l-0.003-0.003c0.696,0.665,1.523,0.782,2.419,0.557c0.433-0.108,1.061-0.008,0.973-0.778
					l0.03-0.018c0.432,0.125,0.606-0.09,0.647-0.485l0.013,0.004c0.127,0.027,0.183-0.033,0.187-0.153h-0.01
					c0.414,0.091,0.446-0.222,0.521-0.492l-0.017,0.019c0.115-0.009,0.174-0.07,0.179-0.186c0,0-0.015,0.019-0.012,0.019
					c0.112-0.008,0.173-0.07,0.176-0.184l-0.012,0.011c0.114-0.006,0.173-0.065,0.164-0.183l0.039,0.054l-0.045-0.05
					c0.121,0.004,0.179-0.047,0.148-0.175l0.01-0.036c0.733,0.091,0.653-0.469,0.724-0.908l0.003-0.002
					c0.553,0.068,0.522-0.3,0.495-0.667l0,0c0.241-0.077,0.35-0.247,0.335-0.499h-0.001c0.385-0.165,0.73-0.041,1.069,0.137
					l-0.025,0.041l0.018-0.043c-0.035,0.167-0.039,0.312,0.192,0.315l-0.014,0.049c0,0,0.023-0.045,0.021-0.045
					c0.052,0.712,0.319,1.248,1.102,1.37l-0.006,0.002c0.056,0.058,0.109,0.115,0.163,0.171v0.002
					c0.06,0.053,0.118,0.107,0.177,0.161c0.055,0.056,0.108,0.109,0.16,0.166C46.362,96.343,46.422,96.399,46.483,96.459z"/>
				<path fill-rule="evenodd" clip-rule="evenodd" fill="#2482C1" d="M82.527,62.291c-0.022-4.004,0.287-7.923,2.163-11.543
					c1.936-3.73,4.924-5.842,9.162-6.253c2.853-0.273,5.701-0.269,8.555-0.269c7.346-0.001,14.693,0.044,22.041,0.073
					c1.884,0.008,2.051,0.223,1.486,2.028c-1.227,3.941-3.463,7.029-7.414,8.633c-1.272,0.516-2.606,0.744-3.977,0.728
					c-6.459-0.07-12.917-0.09-19.375,0.18c-2.048,0.084-4.089,0.23-6.076,0.805c-2.934,0.849-5.098,2.597-6.424,5.36
					C82.627,62.124,82.575,62.206,82.527,62.291z"/>
				<path fill-rule="evenodd" clip-rule="evenodd" fill="#2382C1" d="M81.06,97.717c1.002-4.497,4.954-8.757,9.492-9.244
					c2.281,0.068,4.563,0.016,6.851,0.141c3.445,0.183,6.897-0.261,10.35-0.137c0.139,0.005,0.285,0.015,0.411-0.026
					c0.088-0.029,0.148-0.141,0.222-0.217c1.51-0.074,3.021-0.171,4.532-0.221c1.683-0.052,3.332-0.326,4.971-0.694
					c0.588-0.035,1.247,0.123,1.602-0.572l0.004,0.006c0.171,0.053,0.31,0.048,0.332-0.177l0.003,0.008
					c0.51,0.079,0.917-0.019,1.038-0.604l0.003-0.001c0.286-0.008,0.601,0.024,0.604-0.404l0.049,0.007c0,0-0.047-0.015-0.047-0.014
					c0.498,0.096,0.672-0.18,0.698-0.616l-0.002,0.012c0.058-0.061,0.119-0.117,0.178-0.176l-0.008,0.002
					c0.497-0.08,0.833-0.3,0.775-0.872l0.017-0.018c0.94,0.171,0.49-0.616,0.669-0.972l0.029,0.064l-0.032-0.062
					c0.124,0.033,0.345-0.073,0.363,0.087c0.163,1.362-0.01,2.725-0.437,3.981c-0.159,0.464-0.366,0.997-0.271,1.363
					c0.298,1.139-0.198,2.079-0.75,2.86c-0.465,0.659-0.572,1.227-0.485,1.937l0.006-0.008c-0.097,0.035-0.146,0.102-0.13,0.208
					c0,0,0.007,0.003,0.007,0.001c-0.454,0.105-0.544,0.427-0.492,0.833l-0.031-0.045l0.025,0.047
					c-0.387,0.029-0.554,0.332-0.728,0.608c-0.44,0.697-1.029,1.262-1.599,1.848c-0.396,0.402-1.027,0.574-1.188,1.207l-0.004-0.049
					c0,0,0,0.05,0,0.049c-0.964,0.123-1.772,0.876-2.835,0.662c-0.249-0.052-0.179,0.329-0.208,0.532
					c-0.711,0.195-1.434,0.328-2.17,0.388c-0.786-0.415-1.563,0.036-2.349,0.035c-9.194-0.017-18.39-0.011-27.587-0.013
					C81.263,99.464,81.132,99.339,81.06,97.717z"/>
				<path fill-rule="evenodd" clip-rule="evenodd" fill="#2482C1" d="M98.598,66.614c4.074,0,8.151-0.032,12.228,0.012
					c3.361,0.037,6.376,1.193,8.953,3.308c1.963,1.611,3.607,3.521,4.273,6.088c0.392,1.507,0.093,1.959-1.455,1.964
					c-6.075,0.017-12.149,0.039-18.223,0.015c-2.827-0.013-5.662,0.14-8.481-0.163c-5.199-0.553-10.406-4.105-11.927-9.032
					c-0.064-0.211-0.144-0.421-0.193-0.638c-0.238-1.042,0.035-1.468,1.1-1.555c0.908-0.068,1.827-0.053,2.741-0.053
					c3.661-0.004,7.322-0.001,10.984-0.001C98.598,66.579,98.598,66.599,98.598,66.614z"/>
				<path fill-rule="evenodd" clip-rule="evenodd" fill="#2382C1" d="M61.163,99.083c-0.177,0.583-0.674,0.406-1.037,0.369
					c-1.328-0.13-2.647-0.355-3.974-0.464c-0.444-0.04-0.692-0.718-1.222-0.322c-1.133,0.054-2.077-0.501-3.029-0.983
					c-1.355-0.693-2.61-1.537-3.616-2.709c0.552-1.075-0.324-0.875-0.868-0.973l0.018,0.006c-0.059-0.063-0.115-0.123-0.171-0.187
					l0.012,0.009c-0.054-0.061-0.106-0.122-0.161-0.184l-0.001-0.002c0.01-0.248,0.016-0.494-0.341-0.49l0.002,0.001
					c-0.019-0.73,0.104-1.52-0.81-1.868c-0.076-0.029-0.113-0.186-0.147-0.29c-0.25-0.732-0.499-1.461-0.757-2.186
					c-0.217-0.604-0.032-1.343-0.591-1.83c-0.236-0.568-0.328-1.186-0.342-1.784c-0.14-6.455-0.029-12.911,0.01-19.363
					c0.491-1.486,0.221-1.485,2.167-1.173c0.054,0.009,0.11-0.002,0.165-0.004l-0.007-0.005c0.065,0.161,0.197,0.183,0.347,0.158
					l-0.009-0.002c0.075,0.187,0.229,0.19,0.39,0.173c4.474,2.21,7.076,5.824,8.007,10.689c0.1,0.514,0.201,1.035,0.222,1.557
					c0.079,1.984,0.125,3.972,0.184,5.957c0.005,0.271,0.01,0.542,0.014,0.813c0.003,0.144,0.009,0.286,0.012,0.431
					c0.016,0.174,0.031,0.342,0.045,0.518c0.02,0.181,0.037,0.367,0.055,0.55c-0.191,0.244-0.086,0.533-0.118,0.8
					c-0.107,0.941,0.372,1.889,0.138,2.787c-0.331,1.256,0.646,2.171,0.68,3.348c0.015,0.581,0.246,1.407,0.909,1.843l-0.012-0.01
					c-0.06,1.184,0.885,1.929,1.29,2.908c0.075,0.182,0.341,0.125,0.533,0.098l-0.023,0.034l0.019-0.036
					c-0.048,0.279-0.044,0.526,0.341,0.519c0.099,0.089,0.195,0.178,0.292,0.271c0.209,0.31,0.619,0.625-0.159,0.896
					c0.587,0.271,1.062,0.176,1.535,0.13L61.163,99.083z"/>
				<path fill-rule="evenodd" clip-rule="evenodd" fill="#2482C1" d="M32.406,88.146c-0.049-0.023-0.142-0.044-0.142-0.071
					c-0.06-1.145-0.55-2.244-0.428-3.406c0.206-1.957,0.222-3.908-0.002-5.864c-0.032-0.275-0.028-0.553-0.028-0.83
					c-0.003-6.181,0.013-12.362-0.011-18.543c-0.006-1.958-0.199-3.882-0.979-5.735c-0.456-1.087-0.796-2.206-1.647-3.073
					c-0.315-0.321-0.158-0.733-0.187-1.111c1.605,1.963,2.403,4.268,2.837,6.727c0.379,2.147,0.17,4.315,0.183,6.475
					c0.023,4.356,0.057,8.71,0.039,13.067C32.024,79.91,32.31,84.024,32.406,88.146z"/>
				<path fill-rule="evenodd" clip-rule="evenodd" fill="#2482C1" d="M81.06,97.717c0.072,1.622,0.203,1.747,1.877,1.747
					c9.197,0.002,18.393-0.003,27.587,0.013c0.785,0.001,1.563-0.45,2.349-0.035c-2.508,0.373-5.034,0.233-7.554,0.239
					c-7.679,0.017-15.36-0.015-23.04-0.024c-0.027,0-0.056,0-0.08,0C80.616,99.627,80.382,99.229,81.06,97.717z"/>
				<path fill-rule="evenodd" clip-rule="evenodd" fill="#2482C1" d="M33.212,99.151c3.15,0.271,6.308,0.172,9.461,0.123
					c1.857-0.028,3.719-0.256,5.553-0.639c0.395-0.081,0.145-0.362,0.256-0.517c0.219-0.051,0.312,0.184,0.493,0.216
					c-0.204,0.156-0.388,0.402-0.616,0.456c-0.806,0.198-1.62,0.383-2.44,0.468c-3.749,0.398-7.506,0.491-11.267,0.208
					C34.164,99.431,33.659,99.404,33.212,99.151z"/>
				<path fill-rule="evenodd" clip-rule="evenodd" fill="#2482C1" d="M122.219,93.159c-0.087-0.71,0.021-1.278,0.485-1.937
					c0.552-0.782,1.048-1.721,0.75-2.86c-0.095-0.366,0.112-0.899,0.271-1.363c0.427-1.256,0.6-2.619,0.437-3.981
					c-0.019-0.16-0.239-0.054-0.363-0.087c0.2-0.417,0.4-0.831,0.6-1.248C124.388,85.656,124.209,89.583,122.219,93.159z"/>
				<path fill-rule="evenodd" clip-rule="evenodd" fill="#2482C1" d="M20.671,82.322c0.453,0.1,0.319,0.469,0.304,0.738
					c-0.113,2.08,0.374,4.086,0.782,6.091c0.328,1.611,1.293,2.953,2.154,4.322c0.14,0.219,0.261,0.414,0.22,0.676
					c-1.512-1.562-2.331-3.467-2.745-5.57C20.978,86.514,20.688,84.434,20.671,82.322z"/>
				<path fill-rule="evenodd" clip-rule="evenodd" fill="#2482C1" d="M108.385,88.234c-0.073,0.076-0.134,0.188-0.222,0.217
					c-0.126,0.041-0.272,0.031-0.411,0.026c-3.452-0.124-6.904,0.32-10.35,0.137c-2.288-0.125-4.569-0.073-6.851-0.141
					c0.248-0.152,0.528-0.167,0.803-0.169c5.38-0.004,10.759-0.006,16.138-0.008c0.175-0.018,0.349-0.029,0.523-0.047
					C108.138,88.245,108.262,88.24,108.385,88.234z"/>
				<path fill-rule="evenodd" clip-rule="evenodd" fill="#2482C1" d="M57.336,94.275c-0.663-0.436-0.895-1.262-0.909-1.843
					c-0.033-1.177-1.011-2.092-0.68-3.348c0.234-0.897-0.245-1.846-0.138-2.787c0.032-0.267-0.073-0.557,0.118-0.8
					C55.885,88.492,56.29,91.444,57.336,94.275z"/>
				<path fill-rule="evenodd" clip-rule="evenodd" fill="#2482C1" d="M27.128,96.818c0.767-0.054,1.336,0.394,1.92,0.778
					c0.9,0.589,2.016,0.546,2.958,1.024c0.254,0.128,0.475,0.249,0.626,0.48C30.653,98.685,28.771,98.044,27.128,96.818z"/>
				<path fill-rule="evenodd" clip-rule="evenodd" fill="#2482C1" d="M23.159,45.011c-0.534,0.18-0.893-0.344-1.411-0.333
					c-0.545,0.011-0.793,0.123-0.778,0.736c0.039,1.599,0.018,3.198,0.01,4.798c-0.001,0.265,0.076,0.547-0.163,0.969
					c0-1.148,0.01-2.132-0.005-3.116c-0.004-0.291,0.107-0.613-0.146-0.866c-0.041-0.691-0.038-1.377,0.056-2.066
					c0.094-0.681,0.474-0.903,1.106-0.7C22.288,44.581,22.807,44.61,23.159,45.011z"/>
				<path fill-rule="evenodd" clip-rule="evenodd" fill="#2482C1" d="M44.47,86.981c0.559,0.487,0.374,1.226,0.591,1.83
					c0.258,0.725,0.507,1.453,0.757,2.186c0.034,0.104,0.071,0.26,0.147,0.29c0.913,0.348,0.791,1.138,0.81,1.868
					c-1.303-1.522-1.7-3.412-2.146-5.282C44.559,87.581,44.521,87.281,44.47,86.981z"/>
				<path fill-rule="evenodd" clip-rule="evenodd" fill="#2482C1" d="M118.089,97.86c0.161-0.633,0.793-0.805,1.188-1.207
					c0.569-0.586,1.158-1.151,1.599-1.848c0.174-0.276,0.341-0.579,0.728-0.608C120.735,95.708,119.646,97.01,118.089,97.86z"/>
				<path fill-rule="evenodd" clip-rule="evenodd" fill="#2482C1" d="M33.983,95.125c-0.575-0.235-0.736-0.847-0.865-1.292
					c-0.322-1.126-0.441-2.309-0.63-3.466c-0.009-0.063,0.075-0.14,0.115-0.21C32.841,91.874,33.313,93.526,33.983,95.125z"/>
				<path fill-rule="evenodd" clip-rule="evenodd" fill="#2482C1" d="M36.482,98.119c-1.052-0.167-2.458-1.852-2.499-2.992
					C34.716,96.208,35.485,97.26,36.482,98.119z"/>
				<path fill-rule="evenodd" clip-rule="evenodd" fill="#2482C1" d="M59.147,97.271c-0.192,0.027-0.458,0.084-0.533-0.098
					c-0.405-0.979-1.35-1.725-1.29-2.908C57.933,95.268,58.54,96.265,59.147,97.271z"/>
				<path fill-rule="evenodd" clip-rule="evenodd" fill="#2482C1" d="M39.871,97.894c0.088,0.77-0.54,0.67-0.973,0.778
					c-0.896,0.225-1.723,0.108-2.419-0.557C37.654,98.704,38.78,98.55,39.871,97.894z"/>
				<path fill-rule="evenodd" clip-rule="evenodd" fill="#2482C1" d="M115.042,99.054c0.029-0.203-0.041-0.583,0.208-0.532
					c1.063,0.214,1.871-0.539,2.835-0.662C117.194,98.573,116.13,98.844,115.042,99.054z"/>
				<path fill-rule="evenodd" clip-rule="evenodd" fill="#2482C1" d="M46.47,64.657c-0.055,0.002-0.111,0.014-0.165,0.004
					c-1.946-0.312-1.676-0.313-2.167,1.173c-0.02-0.566-0.199-1.291,0.352-1.584C45.153,63.899,45.851,64.301,46.47,64.657z"/>
				<path fill-rule="evenodd" clip-rule="evenodd" fill="#2482C1" d="M24.136,94.155c0.853,0.04,1.291,0.49,1.319,1.342
					C24.912,95.151,24.472,94.704,24.136,94.155z"/>
				<path fill-rule="evenodd" clip-rule="evenodd" fill="#2482C1" d="M61.151,99.084c-0.474,0.045-0.948,0.141-1.535-0.13
					c0.778-0.271,0.368-0.587,0.159-0.896C60.331,98.27,60.729,98.69,61.151,99.084z"/>
				<path fill-rule="evenodd" clip-rule="evenodd" fill="#2482C1" d="M25.363,46.128c-0.372,0.116-0.676,0.078-0.919-0.29
					c-0.133-0.199-0.352-0.307-0.641-0.227c-0.737,0.199-0.235-0.284-0.251-0.48C24.218,45.354,24.842,45.647,25.363,46.128z"/>
				<path fill-rule="evenodd" clip-rule="evenodd" fill="#2482C1" d="M47.417,94.001c0.544,0.097,1.42-0.102,0.868,0.973
					C47.929,94.711,47.62,94.403,47.417,94.001z"/>
				<path fill-rule="evenodd" clip-rule="evenodd" fill="#2482C1" d="M45.808,95.784c-0.782-0.122-1.05-0.657-1.102-1.37
					C45.118,94.837,45.509,95.276,45.808,95.784z"/>
				<path fill-rule="evenodd" clip-rule="evenodd" fill="#2482C1" d="M44.515,94.098c-0.339-0.178-0.685-0.302-1.069-0.137
					c0.12-0.27,0.274-0.692,0.501-0.66C44.278,93.347,44.392,93.778,44.515,94.098z"/>
				<path fill-rule="evenodd" clip-rule="evenodd" fill="#2482C1" d="M26.7,47.116c-0.641-0.064-1.098-0.378-1.337-0.985
					C25.894,46.344,26.324,46.694,26.7,47.116z"/>
				<path fill-rule="evenodd" clip-rule="evenodd" fill="#2482C1" d="M26.083,96.049c0.574-0.049,0.942,0.183,1.045,0.773
					C26.718,96.647,26.371,96.387,26.083,96.049z"/>
				<path fill-rule="evenodd" clip-rule="evenodd" fill="#2482C1" d="M123.802,82.929c-0.179,0.355,0.271,1.143-0.669,0.972
					C123.288,83.529,123.518,83.211,123.802,82.929z"/>
				<path fill-rule="evenodd" clip-rule="evenodd" fill="#2482C1" d="M119.489,86.747c-0.354,0.695-1.014,0.537-1.602,0.572
					C118.421,87.129,118.955,86.935,119.489,86.747z"/>
				<path fill-rule="evenodd" clip-rule="evenodd" fill="#2482C1" d="M123.116,83.918c0.058,0.572-0.278,0.792-0.775,0.872
					C122.571,84.474,122.771,84.129,123.116,83.918z"/>
				<path fill-rule="evenodd" clip-rule="evenodd" fill="#2482C1" d="M42.613,95.129c-0.07,0.439,0.01,1-0.724,0.908
					C42.077,95.69,42.317,95.387,42.613,95.129z"/>
				<path fill-rule="evenodd" clip-rule="evenodd" fill="#2482C1" d="M32.532,89.81c-0.401-0.413-0.248-0.868-0.098-1.321
					C32.466,88.931,32.499,89.368,32.532,89.81z"/>
				<path fill-rule="evenodd" clip-rule="evenodd" fill="#2482C1" d="M120.866,85.98c-0.121,0.585-0.528,0.682-1.038,0.604
					C120.174,86.384,120.521,86.182,120.866,85.98z"/>
				<path fill-rule="evenodd" clip-rule="evenodd" fill="#2482C1" d="M122.173,84.952c-0.026,0.436-0.2,0.712-0.698,0.616
					C121.661,85.31,121.888,85.097,122.173,84.952z"/>
				<path fill-rule="evenodd" clip-rule="evenodd" fill="#2482C1" d="M121.609,94.194c-0.052-0.407,0.038-0.728,0.492-0.833
					C122.015,93.683,121.876,93.975,121.609,94.194z"/>
				<path fill-rule="evenodd" clip-rule="evenodd" fill="#2482C1" d="M43.111,94.46c0.027,0.367,0.058,0.735-0.495,0.667
					C42.729,94.867,42.871,94.625,43.111,94.46z"/>
				<path fill-rule="evenodd" clip-rule="evenodd" fill="#2482C1" d="M40.549,97.391c-0.041,0.395-0.216,0.61-0.647,0.485
					C40.065,97.646,40.284,97.488,40.549,97.391z"/>
				<path fill-rule="evenodd" clip-rule="evenodd" fill="#2482C1" d="M47.287,97.13c-0.364-0.021-0.563-0.236-0.667-0.563
					C46.842,96.756,47.063,96.94,47.287,97.13z"/>
				<path fill-rule="evenodd" clip-rule="evenodd" fill="#2482C1" d="M27.499,47.833c-0.352,0.026-0.507-0.151-0.512-0.49
					C27.222,47.438,27.396,47.598,27.499,47.833z"/>
				<path fill-rule="evenodd" clip-rule="evenodd" fill="#2482C1" d="M28.983,49.518c-0.339-0.027-0.543-0.165-0.441-0.546
					C28.777,49.082,28.894,49.289,28.983,49.518z"/>
				<path fill-rule="evenodd" clip-rule="evenodd" fill="#2482C1" d="M48.43,97.966c-0.28-0.008-0.578,0.008-0.581-0.399
					C48.077,97.65,48.33,97.699,48.43,97.966z"/>
				<path fill-rule="evenodd" clip-rule="evenodd" fill="#2482C1" d="M59.483,97.787c-0.385,0.007-0.389-0.24-0.341-0.519
					C59.381,97.356,59.425,97.577,59.483,97.787z"/>
				<path fill-rule="evenodd" clip-rule="evenodd" fill="#2482C1" d="M41.259,96.75c-0.074,0.271-0.106,0.583-0.521,0.492
					C40.847,97.013,41.018,96.843,41.259,96.75z"/>
				<path fill-rule="evenodd" clip-rule="evenodd" fill="#2482C1" d="M121.473,85.575c-0.003,0.429-0.317,0.396-0.604,0.404
					C121.023,85.774,121.217,85.626,121.473,85.575z"/>
				<path fill-rule="evenodd" clip-rule="evenodd" fill="#2482C1" d="M47.847,97.575c-0.288-0.019-0.528-0.094-0.552-0.439
					C47.53,97.216,47.726,97.348,47.847,97.575z"/>
				<path fill-rule="evenodd" clip-rule="evenodd" fill="#2482C1" d="M55.616,83.998c-0.004-0.271-0.009-0.542-0.014-0.813
					C55.681,83.454,55.702,83.727,55.616,83.998z"/>
				<path fill-rule="evenodd" clip-rule="evenodd" fill="#2482C1" d="M46.772,93.153c0.356-0.003,0.351,0.243,0.341,0.49
					C46.931,93.528,46.82,93.363,46.772,93.153z"/>
				<path fill-rule="evenodd" clip-rule="evenodd" fill="#2482C1" d="M28.161,48.511c-0.234,0.006-0.351-0.102-0.334-0.338
					C27.994,48.229,28.105,48.345,28.161,48.511z"/>
				<path fill-rule="evenodd" clip-rule="evenodd" fill="#2482C1" d="M43.446,93.961c0.015,0.252-0.094,0.422-0.335,0.499
					C43.156,94.25,43.261,94.079,43.446,93.961z"/>
				<path fill-rule="evenodd" clip-rule="evenodd" fill="#2482C1" d="M23.538,45.124c-0.157,0.066-0.295,0.06-0.381-0.113
					C23.286,45.044,23.458,44.925,23.538,45.124z"/>
				<path fill-rule="evenodd" clip-rule="evenodd" fill="#2382C1" d="M108.016,88.249c-0.175,0.018-0.349,0.029-0.523,0.047
					C107.659,88.198,107.832,88.169,108.016,88.249z"/>
				<path fill-rule="evenodd" clip-rule="evenodd" fill="#2482C1" d="M55.673,84.947c-0.014-0.176-0.029-0.344-0.045-0.518
					C55.726,84.592,55.744,84.764,55.673,84.947z"/>
				<path fill-rule="evenodd" clip-rule="evenodd" fill="#2482C1" d="M44.699,94.411c-0.231-0.004-0.228-0.149-0.192-0.315
					C44.64,94.159,44.685,94.28,44.699,94.411z"/>
				<path fill-rule="evenodd" clip-rule="evenodd" fill="#2482C1" d="M28.534,48.978c-0.194-0.005-0.213-0.146-0.219-0.293
					C28.39,48.78,28.462,48.876,28.534,48.978z"/>
				<path fill-rule="evenodd" clip-rule="evenodd" fill="#2482C1" d="M47.19,64.981c-0.161,0.017-0.314,0.013-0.39-0.173
					C46.955,64.808,47.1,64.841,47.19,64.981z"/>
				<path fill-rule="evenodd" clip-rule="evenodd" fill="#2482C1" d="M25.631,95.654c0.155-0.002,0.302,0.011,0.278,0.229
					C25.773,95.858,25.678,95.787,25.631,95.654z"/>
				<path fill-rule="evenodd" clip-rule="evenodd" fill="#2482C1" d="M46.81,64.811c-0.149,0.024-0.281,0.002-0.347-0.158
					C46.602,64.653,46.738,64.662,46.81,64.811z"/>
				<path fill-rule="evenodd" clip-rule="evenodd" fill="#2482C1" d="M26.992,47.347c-0.152,0-0.296-0.016-0.294-0.223
					C26.835,47.145,26.934,47.221,26.992,47.347z"/>
				<path fill-rule="evenodd" clip-rule="evenodd" fill="#2482C1" d="M32.808,99.122c0.132-0.175,0.243-0.139,0.336,0.039
					C33.031,99.146,32.917,99.135,32.808,99.122z"/>
				<path fill-rule="evenodd" clip-rule="evenodd" fill="#2482C1" d="M119.825,86.576c-0.022,0.225-0.161,0.23-0.332,0.177
					C119.565,86.619,119.692,86.592,119.825,86.576z"/>
				<path fill-rule="evenodd" clip-rule="evenodd" fill="#2482C1" d="M46.483,96.459c-0.062-0.06-0.121-0.116-0.182-0.173
					C46.362,96.343,46.422,96.399,46.483,96.459z"/>
				<path fill-rule="evenodd" clip-rule="evenodd" fill="#2482C1" d="M41.585,96.417c-0.003,0.114-0.063,0.176-0.176,0.184
					C41.466,96.539,41.524,96.477,41.585,96.417z"/>
				<path fill-rule="evenodd" clip-rule="evenodd" fill="#2482C1" d="M122.349,84.788c-0.059,0.059-0.12,0.115-0.178,0.176
					C122.229,84.902,122.289,84.846,122.349,84.788z"/>
				<path fill-rule="evenodd" clip-rule="evenodd" fill="#2482C1" d="M41.421,96.583c-0.005,0.116-0.063,0.177-0.179,0.186
					C41.301,96.708,41.362,96.647,41.421,96.583z"/>
				<path fill-rule="evenodd" clip-rule="evenodd" fill="#2482C1" d="M47.264,93.82c0.056,0.063,0.112,0.123,0.171,0.187
					C47.376,93.943,47.319,93.884,47.264,93.82z"/>
				<path fill-rule="evenodd" clip-rule="evenodd" fill="#2482C1" d="M47.114,93.646c0.055,0.063,0.107,0.123,0.161,0.184
					C47.222,93.769,47.169,93.708,47.114,93.646z"/>
				<path fill-rule="evenodd" clip-rule="evenodd" fill="#2482C1" d="M25.912,95.879c0.126-0.027,0.183,0.03,0.175,0.157
					C26.028,95.985,25.971,95.931,25.912,95.879z"/>
				<path fill-rule="evenodd" clip-rule="evenodd" fill="#2482C1" d="M40.748,97.242c-0.004,0.121-0.06,0.181-0.187,0.153
					C40.624,97.344,40.687,97.294,40.748,97.242z"/>
				<path fill-rule="evenodd" clip-rule="evenodd" fill="#2482C1" d="M122.095,93.36c-0.017-0.107,0.033-0.173,0.13-0.208
					C122.182,93.22,122.137,93.29,122.095,93.36z"/>
				<path fill-rule="evenodd" clip-rule="evenodd" fill="#2482C1" d="M28.315,48.685c-0.054-0.061-0.109-0.119-0.163-0.177
					C28.206,48.565,28.262,48.624,28.315,48.685z"/>
				<path fill-rule="evenodd" clip-rule="evenodd" fill="#2482C1" d="M45.965,95.958c-0.054-0.057-0.107-0.114-0.163-0.171
					C45.857,95.844,45.911,95.901,45.965,95.958z"/>
				<path fill-rule="evenodd" clip-rule="evenodd" fill="#2482C1" d="M27.83,48.178c-0.056-0.058-0.113-0.119-0.172-0.177
					C27.717,48.06,27.774,48.121,27.83,48.178z"/>
				<path fill-rule="evenodd" clip-rule="evenodd" fill="#2482C1" d="M27.665,48.007c-0.059-0.057-0.115-0.113-0.171-0.17
					C27.55,47.894,27.606,47.95,27.665,48.007z"/>
				<path fill-rule="evenodd" clip-rule="evenodd" fill="#2482C1" d="M25.451,95.489c0.062,0.054,0.121,0.11,0.182,0.165
					C25.572,95.599,25.513,95.543,25.451,95.489z"/>
				<path fill-rule="evenodd" clip-rule="evenodd" fill="#2482C1" d="M46.142,96.121c-0.059-0.054-0.117-0.108-0.177-0.161
					C46.024,96.013,46.083,96.067,46.142,96.121z"/>
				<path fill-rule="evenodd" clip-rule="evenodd" fill="#2482C1" d="M41.88,96.074c0.03,0.128-0.027,0.179-0.148,0.175
					C41.78,96.191,41.831,96.134,41.88,96.074z"/>
				<path fill-rule="evenodd" clip-rule="evenodd" fill="#2482C1" d="M41.737,96.245c0.009,0.117-0.05,0.177-0.164,0.183
					C41.626,96.367,41.681,96.307,41.737,96.245z"/>
			</g>
		</g>
	</g>
</g>
<g id="Layer_5">
</g>
<g id="grid" display="none">
</g>
</svg>
