<?xml version="1.0" encoding="utf-8"?>
<!-- Generator: Adobe Illustrator 16.0.0, SVG Export Plug-In . SVG Version: 6.00 Build 0)  -->
<!DOCTYPE svg PUBLIC "-//W3C//DTD SVG 1.1//EN" "http://www.w3.org/Graphics/SVG/1.1/DTD/svg11.dtd">
<svg version="1.1" xmlns="http://www.w3.org/2000/svg" xmlns:xlink="http://www.w3.org/1999/xlink" x="0px" y="0px"
	 width="544.609px" height="144px" viewBox="0 0 544.609 144" enable-background="new 0 0 544.609 144" xml:space="preserve">
<g id="Bg">
</g>
<g id="overlay">
</g>
<g id="Layer_1">
	<path fill-rule="evenodd" clip-rule="evenodd" fill="#2482C1" d="M143.609,120.334C143.609,133.588,133.255,144,120,144H24
		c-13.255,0-24.391-10.412-24.391-23.666v-96C-0.391,11.078,10.745,0,24,0h96c13.255,0,23.609,11.078,23.609,24.334V120.334z"/>
	<g>
		<path fill="#2482C1" d="M216.563,99.756c-0.432,0.865-1.151,1.297-2.159,1.297h-4.607c-1.008,0-1.8-0.359-1.873-1.297
			l-2.446-34.989l-12.673,34.989c-0.358,0.938-1.151,1.297-2.159,1.297h-4.607c-1.01,0-1.729-0.359-1.874-1.297l-6.984-49.244
			c-0.288-0.865,0.073-1.296,1.081-1.296h6.839c1.008,0,1.657,0.358,1.728,1.366l2.879,28.873l0.216,12.598l3.815-12.598
			l10.946-28.873c0.358-0.936,1.078-1.366,2.016-1.366h4.462c0.938,0,1.512,0.431,1.584,1.366l2.376,28.873v12.598l4.032-12.598
			l11.447-28.873c0.504-0.936,1.153-1.366,2.161-1.366h4.68c0.863,0,1.224,0.431,0.647,1.296L216.563,99.756z"/>
		<path fill="#2482C1" d="M248.82,68.006h0.146c1.87-2.735,5.039-5.255,10.366-5.255c7.631,0,13.393,4.751,11.304,19.728
			l-1.08,7.559c-0.504,3.527,0.36,4.969,1.296,4.969h0.146c0.935,0,1.366,0.432,1.224,1.439l-0.432,3.168
			c-0.146,1.008-0.576,1.439-1.584,1.439h-0.434c-6.982,0-9.936-3.455-8.928-10.512l1.153-8.063
			c1.584-11.231-0.649-13.681-4.753-13.681c-5.471,0-8.998,3.241-10.151,11.52l-2.735,19.296c-0.145,1.008-0.576,1.439-1.584,1.439
			h-5.761c-1.008,0-1.439-0.432-1.296-1.439l7.129-50.397c0.144-1.008,0.647-1.441,1.655-1.441h5.761
			c1.008,0,1.366,0.434,1.224,1.441L248.82,68.006z"/>
		<path fill="#2482C1" d="M285.396,90.037c-0.504,3.527,0.359,4.969,1.297,4.969h0.143c0.938,0,1.369,0.432,1.224,1.439
			l-0.432,3.168c-0.143,1.008-0.576,1.439-1.584,1.439h-0.432c-6.984,0-9.935-3.455-8.927-10.512l3.6-25.486
			c0.143-1.008,0.646-1.441,1.654-1.441h5.762c1.008,0,1.368,0.434,1.223,1.441L285.396,90.037z M290.293,54.975
			c-0.146,1.008-0.576,1.441-1.584,1.441h-5.762c-1.008,0-1.438-0.434-1.293-1.441l0.862-5.759c0.146-1.008,0.649-1.441,1.657-1.441
			h5.758c1.008,0,1.369,0.434,1.224,1.441L290.293,54.975z"/>
		<path fill="#2482C1" d="M320.099,67.646c-0.144,1.008-0.504,1.801-1.151,2.736l-18.504,24.981h14.904
			c1.008,0,1.366,0.434,1.224,1.441l-0.432,2.808c-0.146,1.008-0.576,1.439-1.584,1.439h-23.471c-1.01,0-1.441-0.432-1.296-1.439
			l0.358-2.592c0.146-1.008,0.504-1.801,1.153-2.735l18.574-24.984h-13.967c-1.008,0-1.368-0.431-1.226-1.438l0.434-2.809
			c0.144-1.008,0.647-1.441,1.655-1.441h22.465c1.008,0,1.366,0.434,1.223,1.441L320.099,67.646z"/>
		<path fill="#2482C1" d="M350.771,67.646c-0.146,1.008-0.504,1.801-1.153,2.736l-18.504,24.981h14.903
			c1.008,0,1.369,0.434,1.224,1.441l-0.431,2.808c-0.144,1.008-0.577,1.439-1.585,1.439h-23.47c-1.008,0-1.439-0.432-1.297-1.439
			l0.361-2.592c0.143-1.008,0.504-1.801,1.15-2.735l18.577-24.984h-13.969c-1.008,0-1.366-0.431-1.224-1.438l0.432-2.809
			c0.145-1.008,0.648-1.441,1.656-1.441h22.463c1.008,0,1.369,0.434,1.224,1.441L350.771,67.646z"/>
		<path fill="#2482C1" d="M389.506,56.774c-0.288,0.577-1.226,0.36-1.872,0.146c-1.8-0.504-7.128-1.73-11.231-1.73
			c-7.704,0-10.15,4.322-10.584,7.416c-0.432,2.592,0.576,4.896,5.184,6.77l6.551,2.592c7.85,3.096,11.089,9.215,10.224,15.623
			c-1.224,8.785-9.646,14.328-20.662,14.328c-6.047,0-13.104-2.162-14.617-3.527c-0.43-0.434-0.43-0.793,0.146-1.873l1.585-3.023
			c0.285-0.576,1.223-0.361,1.942-0.146c1.8,0.504,7.632,1.729,11.808,1.729c6.263,0,10.801-2.737,11.305-6.695
			c0.504-3.457-2.234-6.12-5.616-7.562l-6.626-2.735c-6.55-2.734-10.796-7.199-9.718-14.615
			c1.296-9.432,10.008-15.119,19.584-15.119c6.335,0,13.174,2.449,14.327,3.527c0.504,0.36,0.431,0.721-0.143,1.872L389.506,56.774z
			"/>
		<path fill="#2482C1" d="M404.122,69.518c3.6-4.751,8.208-6.84,13.681-6.84c8.207,0,14.615,4.682,12.527,19.512
			c-2.089,14.975-9.865,19.729-18.216,19.729c-6.12,0-8.928-2.52-10.369-5.258h-0.143l-2.665,18.793
			c-0.143,1.008-0.574,1.439-1.582,1.439h-5.761c-1.008,0-1.439-0.432-1.296-1.439l5.831-41.543
			c0.434-3.023-0.358-4.248-1.296-4.248h-0.144c-1.008,0-1.368-0.431-1.224-1.441l0.432-3.166c0.146-1.008,0.649-1.441,1.657-1.441
			h0.431c5.977,0,7.848,2.234,7.992,5.904H404.122z M403.618,82.189c-1.366,9.793,1.8,13.679,8.135,13.679
			c4.969,0,8.354-2.446,9.938-13.679c1.582-10.872-0.938-13.462-6.193-13.462C409.091,68.728,404.986,72.613,403.618,82.189z"/>
		<path fill="#2482C1" d="M470.216,90.756c-0.432,3.026,0.434,4.25,1.368,4.25h0.146c0.935,0,1.366,0.432,1.224,1.439l-0.434,3.168
			c-0.143,1.008-0.574,1.439-1.582,1.439h-0.434c-5.975,0-7.92-2.231-8.063-5.904h-0.146c-3.6,4.754-8.208,6.842-13.678,6.842
			c-8.208,0-14.616-4.681-12.527-19.801c2.088-14.83,9.79-19.512,17.997-19.512c4.896,0,8.426,1.658,10.585,5.4h0.146l1.15-3.023
			c0.288-1.008,0.646-1.441,1.657-1.441h5.039c1.008,0,1.369,0.434,1.224,1.441L470.216,90.756z M444.729,82.189
			c-1.512,11.159,0.935,13.752,6.192,13.752c6.408,0,10.512-4.031,11.878-13.752c1.369-9.576-1.582-13.462-7.989-13.462
			C449.553,68.728,446.314,71.317,444.729,82.189z"/>
		<path fill="#2482C1" d="M506.361,70.383c-0.432,0.504-1.224,0.36-1.873,0.143c-1.366-0.504-3.67-1.798-6.839-1.798
			c-7.128,0-10.081,6.551-11.089,13.605c-1.008,7.272,0.216,13.535,7.2,13.535c2.808,0,5.112-1.008,7.416-1.798
			c0.864-0.288,1.584-0.361,1.872,0.143l1.151,2.305c0.36,0.646,0.36,1.223-0.288,1.873c-1.512,1.512-5.902,3.527-12.023,3.527
			c-13.102,0-15.406-9.217-13.967-19.655c1.512-10.585,6.408-19.585,20.158-19.585c4.824,0,9.073,2.232,10.369,3.527
			c0.432,0.434,0.574,0.938-0.216,1.873L506.361,70.383z"/>
		<path fill="#2482C1" d="M520.761,85.359c-0.288,6.047,1.296,10.509,7.632,10.509c2.808,0,5.615-0.862,8.711-1.798
			c1.512-0.434,1.657-0.145,1.873,0.143l1.15,2.305c0.361,0.646,0.361,1.223-0.288,1.873c-1.582,1.582-7.127,3.527-13.247,3.527
			c-13.319,0-15.623-9.144-14.254-19.225c1.584-11.088,7.127-20.016,18.789-20.016c8.712,0,14.762,5.039,13.25,15.48
			c-0.793,5.543-2.881,7.201-8.857,7.201H520.761z M532.712,79.31c2.231,0,2.88-0.288,3.169-2.446
			c0.576-4.25-1.369-8.136-5.185-8.136c-5.255,0-7.847,4.894-9.074,10.582H532.712z"/>
	</g>
	<g>
		<g opacity="0.2">
			<path fill-rule="evenodd" clip-rule="evenodd" d="M62.163,100.416c0.481,0.393,0.865,0.113,1.248-0.178
				c2.514-1.905,3.82-4.533,4.52-7.527c0.582-2.498,0.729-5.045,0.806-7.594c0.246-7.843,0.304-15.689,0.169-23.537
				c-0.063-3.512,0.524-6.836,2.438-9.84c1.774-2.787,4.23-4.73,7.354-5.809c1.248-0.43,1.564-0.227,1.579,1.108
				c0.052,4.243,0.084,8.481,0.088,12.727c0.012,7.569,0.015,15.14-0.012,22.71c-0.009,2.404-0.271,4.793-0.71,7.161
				c-0.888,4.778-3.79,7.948-8.104,9.813c-4.23,1.829-8.706,1.97-13.214,1.26c-0.82-0.129-1.708-0.104-2.394-0.711
				c0.529-0.396,0.777,0.281,1.222,0.322c1.326,0.108,2.646,0.334,3.974,0.463C61.489,100.822,61.986,100.999,62.163,100.416z"/>
			<path fill-rule="evenodd" clip-rule="evenodd" d="M47.483,97.793c0.047,0.035,0.09,0.068,0.137,0.107
				c0.104,0.327,0.303,0.541,0.667,0.563l0.008,0.006c0.023,0.346,0.264,0.421,0.552,0.439c0,0,0.002-0.01,0.002-0.008
				c0.003,0.408,0.301,0.391,0.581,0.399c0.029,0.048,0.048,0.1,0.052,0.152c-0.111,0.155,0.139,0.437-0.256,0.517
				c-1.834,0.383-3.695,0.611-5.553,0.639c-3.153,0.049-6.311,0.148-9.461-0.123l-0.032,0.031l-0.036-0.021
				c-0.093-0.178-0.204-0.213-0.336-0.039c-0.061-0.006-0.117-0.013-0.176-0.021c-0.151-0.231-0.372-0.352-0.626-0.48
				c-0.942-0.478-2.058-0.434-2.958-1.023c-0.584-0.385-1.153-0.832-1.92-0.778v0.005c-0.103-0.591-0.471-0.822-1.045-0.773
				c0,0,0.004-0.012,0.004-0.014c0.008-0.126-0.049-0.184-0.175-0.156l-0.003,0.004c0.023-0.219-0.123-0.231-0.278-0.229h0.002
				c-0.061-0.056-0.12-0.111-0.182-0.166c0,0,0.003,0.008,0.004,0.008c-0.028-0.852-0.467-1.301-1.319-1.342l-0.005-0.006
				c0.041-0.262-0.08-0.457-0.22-0.676c-0.861-1.369-1.826-2.711-2.154-4.322c-0.408-2.004-0.896-4.011-0.782-6.091
				c0.016-0.27,0.149-0.639-0.304-0.738c-0.016-0.999-0.051-1.995-0.051-2.995c0-10.49,0.009-20.976,0.016-31.464
				c0-0.223,0.021-0.442,0.029-0.665c0.254,0.254,0.143,0.576,0.147,0.867c0.015,0.984,0.005,1.967,0.005,3.115
				c0.239-0.422,0.162-0.704,0.163-0.969c0.008-1.6,0.029-3.199-0.01-4.798c-0.015-0.612,0.233-0.726,0.778-0.735
				c0.519-0.012,0.877,0.513,1.412,0.332h-0.002c0.086,0.174,0.224,0.18,0.381,0.113c0,0,0.015,0.006,0.015,0.008
				c0.016,0.197-0.486,0.68,0.251,0.48c0.289-0.08,0.508,0.027,0.641,0.227c0.243,0.367,0.547,0.406,0.919,0.291
				c0.239,0.608,0.696,0.922,1.337,0.986l-0.002,0.009c-0.002,0.206,0.142,0.223,0.294,0.223l-0.005-0.005
				c0.005,0.339,0.16,0.516,0.511,0.49l-0.004,0.004c0.056,0.057,0.112,0.113,0.17,0.17l-0.006-0.006
				c0.059,0.059,0.116,0.12,0.172,0.178c0,0-0.002-0.008-0.003-0.006c-0.017,0.236,0.1,0.344,0.334,0.338
				c0,0-0.009-0.004-0.009-0.003c0.054,0.059,0.109,0.116,0.163,0.177l0,0c0.006,0.148,0.024,0.289,0.219,0.293l0.007-0.006
				c-0.101,0.381,0.103,0.52,0.442,0.547l-0.001-0.004c0.028,0.377-0.129,0.789,0.187,1.111c0.852,0.867,1.191,1.984,1.647,3.072
				c0.78,1.853,0.974,3.777,0.979,5.734c0.023,6.182,0.008,12.363,0.011,18.543c0,0.277-0.004,0.555,0.028,0.83
				c0.224,1.955,0.208,3.906,0.002,5.863c-0.122,1.162,0.368,2.262,0.428,3.406c0,0.027,0.093,0.048,0.142,0.071
				c0.008,0.114,0.019,0.228,0.028,0.343c-0.15,0.453-0.304,0.908,0.098,1.321c0.024,0.112,0.048,0.229,0.071,0.346
				c-0.04,0.07-0.124,0.146-0.115,0.21c0.188,1.158,0.308,2.34,0.63,3.467c0.129,0.445,0.29,1.057,0.865,1.292v0.003
				c0.041,1.14,1.447,2.824,2.499,2.991l-0.003-0.003c0.696,0.664,1.523,0.781,2.419,0.557c0.433-0.108,1.061-0.009,0.973-0.779
				l0.03-0.018c0.431,0.126,0.606-0.09,0.647-0.484l0.013,0.004c0.127,0.027,0.183-0.032,0.186-0.152h-0.009
				c0.414,0.091,0.446-0.223,0.521-0.492l-0.017,0.018c0.115-0.009,0.173-0.07,0.179-0.186c0,0-0.015,0.019-0.012,0.019
				c0.112-0.009,0.172-0.07,0.176-0.185l-0.012,0.012c0.114-0.006,0.173-0.066,0.164-0.184l0.039,0.055l-0.045-0.051
				c0.121,0.004,0.179-0.047,0.148-0.175l0.01-0.036c0.733,0.092,0.653-0.469,0.724-0.908l0.003-0.002
				c0.553,0.067,0.522-0.301,0.495-0.668l0,0c0.241-0.076,0.35-0.246,0.335-0.498h-0.001c0.385-0.166,0.73-0.041,1.069,0.137
				l-0.025,0.041l0.018-0.043c-0.035,0.166-0.039,0.311,0.192,0.314l-0.014,0.049c0,0,0.023-0.045,0.021-0.045
				c0.052,0.713,0.319,1.248,1.102,1.369l-0.006,0.003c0.056,0.058,0.109,0.114,0.163,0.171v0.002
				c0.06,0.053,0.118,0.107,0.177,0.161c0.055,0.056,0.108,0.108,0.16,0.165C47.362,97.677,47.422,97.732,47.483,97.793z"/>
			<path fill-rule="evenodd" clip-rule="evenodd" d="M83.527,63.625c-0.022-4.005,0.287-7.924,2.163-11.543
				c1.936-3.73,4.924-5.842,9.162-6.254c2.853-0.273,5.701-0.268,8.555-0.268c7.346-0.002,14.693,0.044,22.041,0.072
				c1.883,0.008,2.05,0.223,1.486,2.028c-1.227,3.94-3.463,7.028-7.414,8.634c-1.273,0.516-2.606,0.744-3.977,0.727
				c-6.459-0.07-12.917-0.09-19.375,0.18c-2.048,0.084-4.089,0.23-6.076,0.805c-2.934,0.85-5.098,2.598-6.424,5.361
				C83.627,63.457,83.575,63.539,83.527,63.625z"/>
			<path fill-rule="evenodd" clip-rule="evenodd" d="M82.06,99.051c1.002-4.497,4.954-8.758,9.492-9.244
				c2.281,0.068,4.563,0.016,6.851,0.141c3.445,0.183,6.897-0.262,10.35-0.137c0.139,0.004,0.285,0.015,0.411-0.026
				c0.088-0.029,0.148-0.141,0.222-0.217c1.51-0.073,3.021-0.171,4.532-0.222c1.683-0.051,3.332-0.326,4.971-0.693
				c0.588-0.035,1.247,0.123,1.602-0.572l0.004,0.006c0.171,0.053,0.31,0.049,0.332-0.177l0.003,0.009
				c0.51,0.078,0.917-0.02,1.038-0.604l0.003-0.002c0.286-0.008,0.601,0.025,0.604-0.404l0.049,0.008c0,0-0.047-0.016-0.047-0.015
				c0.498,0.097,0.672-0.181,0.698-0.616l-0.002,0.012c0.058-0.061,0.119-0.117,0.178-0.176l-0.008,0.002
				c0.497-0.08,0.833-0.3,0.775-0.871l0.017-0.018c0.94,0.17,0.49-0.617,0.669-0.973l0.029,0.064l-0.032-0.062
				c0.124,0.032,0.345-0.073,0.363,0.087c0.163,1.361-0.01,2.725-0.437,3.98c-0.159,0.465-0.366,0.998-0.271,1.363
				c0.298,1.139-0.198,2.078-0.75,2.86c-0.465,0.659-0.572,1.228-0.485,1.937l0.006-0.008c-0.097,0.035-0.146,0.102-0.13,0.209
				c0,0,0.007,0.004,0.007,0.001c-0.454,0.105-0.544,0.427-0.492,0.833l-0.031-0.045l0.025,0.047
				c-0.387,0.029-0.554,0.332-0.728,0.609c-0.44,0.697-1.029,1.262-1.599,1.848c-0.396,0.402-1.027,0.574-1.188,1.207l-0.004-0.049
				c0,0,0,0.05,0,0.049c-0.964,0.123-1.772,0.877-2.835,0.662c-0.249-0.052-0.179,0.329-0.208,0.531
				c-0.711,0.195-1.434,0.328-2.17,0.389c-0.786-0.415-1.563,0.036-2.349,0.035c-9.194-0.017-18.39-0.011-27.587-0.014
				C82.263,100.797,82.132,100.672,82.06,99.051z"/>
			<path fill-rule="evenodd" clip-rule="evenodd" d="M99.598,67.947c4.074,0,8.151-0.031,12.228,0.012
				c3.361,0.037,6.376,1.193,8.953,3.309c1.963,1.611,3.607,3.521,4.273,6.088c0.392,1.507,0.093,1.959-1.455,1.964
				c-6.075,0.017-12.149,0.038-18.223,0.015c-2.827-0.012-5.662,0.141-8.481-0.162c-5.199-0.553-10.406-4.105-11.927-9.031
				c-0.064-0.211-0.144-0.422-0.193-0.639c-0.238-1.041,0.035-1.468,1.1-1.555c0.908-0.068,1.827-0.053,2.741-0.053
				c3.661-0.004,7.322-0.001,10.984-0.001C99.598,67.912,99.598,67.932,99.598,67.947z"/>
			<path fill-rule="evenodd" clip-rule="evenodd" d="M62.163,100.416c-0.177,0.583-0.674,0.406-1.037,0.369
				c-1.328-0.129-2.647-0.354-3.974-0.463c-0.445-0.041-0.692-0.719-1.222-0.322c-1.133,0.053-2.077-0.502-3.029-0.984
				c-1.355-0.693-2.611-1.537-3.616-2.709c0.552-1.074-0.324-0.875-0.869-0.973l0.018,0.006c-0.059-0.063-0.115-0.123-0.171-0.186
				l0.012,0.009c-0.054-0.062-0.106-0.122-0.161-0.185l-0.001-0.002c0.009-0.247,0.016-0.493-0.341-0.49l0.002,0.002
				c-0.019-0.73,0.104-1.52-0.81-1.868c-0.076-0.029-0.113-0.187-0.147-0.29c-0.25-0.732-0.499-1.461-0.757-2.186
				c-0.217-0.604-0.032-1.342-0.591-1.83c-0.236-0.568-0.328-1.186-0.342-1.783c-0.14-6.455-0.029-12.91,0.01-19.363
				c0.491-1.486,0.221-1.484,2.167-1.173c0.054,0.009,0.11-0.003,0.165-0.005l-0.007-0.004c0.065,0.16,0.197,0.182,0.347,0.158
				l-0.009-0.003c0.075,0.187,0.229,0.19,0.39,0.173c4.474,2.211,7.076,5.824,8.007,10.689c0.1,0.514,0.201,1.035,0.222,1.557
				c0.079,1.984,0.125,3.973,0.184,5.957c0.005,0.271,0.01,0.543,0.014,0.813c0.003,0.144,0.008,0.286,0.012,0.431
				c0.016,0.174,0.031,0.343,0.045,0.519c0.02,0.181,0.037,0.366,0.055,0.55c-0.191,0.244-0.086,0.533-0.118,0.801
				c-0.107,0.94,0.372,1.889,0.138,2.786c-0.332,1.257,0.646,2.171,0.68,3.349c0.015,0.58,0.246,1.406,0.909,1.843l-0.012-0.011
				c-0.06,1.184,0.885,1.93,1.29,2.908c0.075,0.182,0.341,0.125,0.533,0.098l-0.024,0.034l0.019-0.036
				c-0.048,0.279-0.044,0.525,0.341,0.52c0.098,0.088,0.195,0.178,0.292,0.27c0.209,0.311,0.619,0.625-0.159,0.896
				c0.587,0.271,1.062,0.176,1.535,0.131L62.163,100.416z"/>
			<path fill-rule="evenodd" clip-rule="evenodd" d="M33.406,89.479c-0.049-0.023-0.142-0.044-0.142-0.071
				c-0.06-1.145-0.55-2.244-0.428-3.406c0.206-1.957,0.222-3.908-0.002-5.863c-0.032-0.275-0.028-0.553-0.028-0.83
				c-0.003-6.18,0.013-12.361-0.011-18.543c-0.006-1.957-0.199-3.882-0.979-5.734c-0.456-1.088-0.796-2.205-1.647-3.072
				c-0.315-0.322-0.158-0.734-0.187-1.111c1.605,1.963,2.403,4.268,2.837,6.727c0.379,2.146,0.17,4.314,0.183,6.475
				c0.023,4.355,0.057,8.711,0.039,13.067C33.024,81.244,33.31,85.357,33.406,89.479z"/>
			<path fill-rule="evenodd" clip-rule="evenodd" d="M82.06,99.051c0.072,1.621,0.203,1.746,1.877,1.746
				c9.197,0.003,18.393-0.003,27.587,0.014c0.785,0.001,1.563-0.45,2.349-0.035c-2.508,0.373-5.034,0.232-7.554,0.238
				c-7.679,0.018-15.361-0.015-23.04-0.023c-0.027,0-0.056,0-0.08,0C81.616,100.961,81.382,100.563,82.06,99.051z"/>
			<path fill-rule="evenodd" clip-rule="evenodd" d="M34.212,100.484c3.15,0.271,6.308,0.172,9.461,0.123
				c1.857-0.027,3.719-0.256,5.553-0.639c0.395-0.08,0.145-0.361,0.256-0.517c0.219-0.052,0.312,0.185,0.493,0.216
				c-0.204,0.156-0.388,0.402-0.616,0.455c-0.806,0.199-1.62,0.384-2.44,0.469c-3.749,0.398-7.506,0.49-11.267,0.208
				C35.164,100.765,34.659,100.738,34.212,100.484z"/>
			<path fill-rule="evenodd" clip-rule="evenodd" d="M123.219,94.492c-0.087-0.709,0.021-1.277,0.485-1.937
				c0.552-0.782,1.048-1.722,0.75-2.86c-0.095-0.365,0.112-0.898,0.271-1.363c0.427-1.256,0.6-2.619,0.437-3.98
				c-0.019-0.16-0.239-0.055-0.363-0.087c0.2-0.417,0.4-0.831,0.6-1.248C125.388,86.989,125.209,90.916,123.219,94.492z"/>
			<path fill-rule="evenodd" clip-rule="evenodd" d="M21.671,83.655c0.453,0.1,0.319,0.469,0.304,0.738
				c-0.113,2.08,0.374,4.087,0.782,6.091c0.328,1.611,1.293,2.953,2.154,4.322c0.14,0.219,0.261,0.414,0.22,0.676
				c-1.512-1.562-2.331-3.467-2.745-5.569C21.978,87.848,21.688,85.768,21.671,83.655z"/>
			<path fill-rule="evenodd" clip-rule="evenodd" d="M109.385,89.567c-0.073,0.076-0.134,0.188-0.222,0.217
				c-0.126,0.041-0.272,0.03-0.411,0.026c-3.452-0.125-6.904,0.319-10.35,0.137c-2.288-0.125-4.57-0.072-6.851-0.141
				c0.248-0.152,0.528-0.168,0.803-0.169c5.38-0.005,10.759-0.006,16.138-0.009c0.175-0.018,0.349-0.029,0.523-0.047
				C109.138,89.578,109.262,89.573,109.385,89.567z"/>
			<path fill-rule="evenodd" clip-rule="evenodd" d="M58.336,95.608c-0.663-0.437-0.895-1.263-0.909-1.843
				c-0.033-1.178-1.011-2.092-0.68-3.349c0.234-0.897-0.245-1.846-0.138-2.786c0.032-0.268-0.073-0.557,0.118-0.801
				C56.885,89.825,57.29,92.777,58.336,95.608z"/>
			<path fill-rule="evenodd" clip-rule="evenodd" d="M28.128,98.151c0.767-0.054,1.336,0.394,1.92,0.778
				c0.9,0.59,2.016,0.546,2.958,1.023c0.254,0.129,0.475,0.249,0.626,0.48C31.653,100.018,29.771,99.377,28.128,98.151z"/>
			<path fill-rule="evenodd" clip-rule="evenodd" d="M24.159,46.344c-0.535,0.181-0.893-0.344-1.412-0.332
				c-0.544,0.01-0.792,0.123-0.778,0.735c0.039,1.599,0.018,3.198,0.01,4.798c-0.001,0.265,0.076,0.547-0.163,0.969
				c0-1.148,0.01-2.131-0.005-3.115c-0.004-0.291,0.107-0.613-0.147-0.867c-0.041-0.691-0.038-1.377,0.056-2.065
				c0.094-0.681,0.474-0.903,1.106-0.7C23.288,45.914,23.807,45.943,24.159,46.344z"/>
			<path fill-rule="evenodd" clip-rule="evenodd" d="M45.47,88.314c0.559,0.488,0.374,1.227,0.591,1.83
				c0.258,0.725,0.507,1.453,0.757,2.186c0.034,0.104,0.071,0.261,0.147,0.29c0.913,0.349,0.791,1.138,0.81,1.868
				c-1.303-1.522-1.7-3.412-2.146-5.281C45.559,88.914,45.521,88.615,45.47,88.314z"/>
			<path fill-rule="evenodd" clip-rule="evenodd" d="M119.089,99.193c0.161-0.633,0.793-0.805,1.188-1.207
				c0.569-0.586,1.158-1.15,1.599-1.848c0.174-0.277,0.341-0.58,0.728-0.609C121.735,97.041,120.646,98.344,119.089,99.193z"/>
			<path fill-rule="evenodd" clip-rule="evenodd" d="M34.983,96.458c-0.575-0.235-0.736-0.847-0.865-1.292
				c-0.322-1.127-0.441-2.309-0.63-3.467c-0.009-0.063,0.075-0.14,0.115-0.21C33.841,93.207,34.313,94.859,34.983,96.458z"/>
			<path fill-rule="evenodd" clip-rule="evenodd" d="M37.482,99.452c-1.052-0.167-2.458-1.852-2.499-2.991
				C35.716,97.541,36.485,98.594,37.482,99.452z"/>
			<path fill-rule="evenodd" clip-rule="evenodd" d="M60.147,98.604c-0.192,0.027-0.458,0.084-0.533-0.098
				c-0.405-0.979-1.35-1.725-1.29-2.908C58.933,96.602,59.54,97.598,60.147,98.604z"/>
			<path fill-rule="evenodd" clip-rule="evenodd" d="M40.871,99.227c0.088,0.771-0.54,0.671-0.973,0.779
				c-0.896,0.225-1.723,0.107-2.419-0.557C38.654,100.037,39.78,99.883,40.871,99.227z"/>
			<path fill-rule="evenodd" clip-rule="evenodd" d="M116.042,100.387c0.029-0.202-0.041-0.583,0.208-0.531
				c1.063,0.215,1.871-0.539,2.835-0.662C118.194,99.906,117.13,100.178,116.042,100.387z"/>
			<path fill-rule="evenodd" clip-rule="evenodd" d="M47.47,65.99c-0.055,0.002-0.111,0.014-0.165,0.005
				c-1.946-0.312-1.676-0.313-2.167,1.173c-0.02-0.566-0.199-1.29,0.352-1.584C46.153,65.232,46.851,65.635,47.47,65.99z"/>
			<path fill-rule="evenodd" clip-rule="evenodd" d="M25.136,95.488c0.853,0.041,1.291,0.49,1.319,1.342
				C25.912,96.484,25.472,96.037,25.136,95.488z"/>
			<path fill-rule="evenodd" clip-rule="evenodd" d="M62.151,100.418c-0.474,0.045-0.948,0.141-1.535-0.131
				c0.778-0.271,0.368-0.586,0.159-0.896C61.331,99.604,61.729,100.023,62.151,100.418z"/>
			<path fill-rule="evenodd" clip-rule="evenodd" d="M26.363,47.462c-0.372,0.116-0.676,0.077-0.919-0.29
				c-0.133-0.199-0.352-0.307-0.641-0.227c-0.737,0.199-0.235-0.283-0.251-0.48C25.218,46.688,25.842,46.98,26.363,47.462z"/>
			<path fill-rule="evenodd" clip-rule="evenodd" d="M48.417,95.334c0.544,0.098,1.42-0.102,0.869,0.973
				C48.929,96.045,48.62,95.736,48.417,95.334z"/>
			<path fill-rule="evenodd" clip-rule="evenodd" d="M46.808,97.117c-0.782-0.121-1.05-0.656-1.102-1.369
				C46.118,96.171,46.509,96.609,46.808,97.117z"/>
			<path fill-rule="evenodd" clip-rule="evenodd" d="M45.515,95.432c-0.339-0.178-0.685-0.303-1.069-0.137
				c0.12-0.27,0.274-0.693,0.501-0.66C45.278,94.68,45.392,95.111,45.515,95.432z"/>
			<path fill-rule="evenodd" clip-rule="evenodd" d="M27.7,48.449c-0.641-0.064-1.098-0.378-1.337-0.984
				C26.894,47.678,27.324,48.027,27.7,48.449z"/>
			<path fill-rule="evenodd" clip-rule="evenodd" d="M27.083,97.383c0.575-0.049,0.943,0.183,1.045,0.773
				C27.718,97.98,27.371,97.721,27.083,97.383z"/>
			<path fill-rule="evenodd" clip-rule="evenodd" d="M124.802,84.262c-0.179,0.355,0.271,1.143-0.669,0.973
				C124.288,84.862,124.518,84.545,124.802,84.262z"/>
			<path fill-rule="evenodd" clip-rule="evenodd" d="M120.489,88.08c-0.354,0.695-1.014,0.537-1.602,0.572
				C119.421,88.463,119.955,88.268,120.489,88.08z"/>
			<path fill-rule="evenodd" clip-rule="evenodd" d="M124.116,85.252c0.058,0.571-0.278,0.791-0.775,0.871
				C123.571,85.807,123.771,85.463,124.116,85.252z"/>
			<path fill-rule="evenodd" clip-rule="evenodd" d="M43.613,96.463c-0.07,0.439,0.009,1-0.724,0.908
				C43.077,97.023,43.317,96.721,43.613,96.463z"/>
			<path fill-rule="evenodd" clip-rule="evenodd" d="M33.532,91.144c-0.401-0.413-0.248-0.868-0.098-1.321
				C33.466,90.265,33.499,90.701,33.532,91.144z"/>
			<path fill-rule="evenodd" clip-rule="evenodd" d="M121.866,87.314c-0.121,0.584-0.528,0.682-1.038,0.604
				C121.174,87.717,121.521,87.516,121.866,87.314z"/>
			<path fill-rule="evenodd" clip-rule="evenodd" d="M123.173,86.285c-0.026,0.436-0.2,0.713-0.698,0.616
				C122.661,86.644,122.888,86.43,123.173,86.285z"/>
			<path fill-rule="evenodd" clip-rule="evenodd" d="M122.609,95.527c-0.052-0.406,0.038-0.728,0.492-0.833
				C123.015,95.017,122.876,95.309,122.609,95.527z"/>
			<path fill-rule="evenodd" clip-rule="evenodd" d="M44.111,95.793c0.027,0.367,0.058,0.735-0.495,0.668
				C43.729,96.2,43.871,95.959,44.111,95.793z"/>
			<path fill-rule="evenodd" clip-rule="evenodd" d="M41.549,98.725c-0.041,0.395-0.216,0.61-0.647,0.484
				C41.065,98.979,41.284,98.822,41.549,98.725z"/>
			<path fill-rule="evenodd" clip-rule="evenodd" d="M48.287,98.463c-0.364-0.021-0.563-0.235-0.667-0.563
				C47.842,98.09,48.063,98.273,48.287,98.463z"/>
			<path fill-rule="evenodd" clip-rule="evenodd" d="M28.499,49.166c-0.351,0.025-0.506-0.151-0.511-0.49
				C28.222,48.771,28.396,48.932,28.499,49.166z"/>
			<path fill-rule="evenodd" clip-rule="evenodd" d="M29.983,50.852c-0.339-0.027-0.543-0.166-0.442-0.547
				C29.777,50.415,29.894,50.623,29.983,50.852z"/>
			<path fill-rule="evenodd" clip-rule="evenodd" d="M49.43,99.3c-0.28-0.009-0.578,0.009-0.581-0.399
				C49.077,98.983,49.33,99.033,49.43,99.3z"/>
			<path fill-rule="evenodd" clip-rule="evenodd" d="M60.483,99.121c-0.385,0.006-0.389-0.24-0.341-0.52
				C60.381,98.689,60.425,98.91,60.483,99.121z"/>
			<path fill-rule="evenodd" clip-rule="evenodd" d="M42.259,98.084c-0.074,0.27-0.106,0.583-0.521,0.492
				C41.847,98.346,42.018,98.176,42.259,98.084z"/>
			<path fill-rule="evenodd" clip-rule="evenodd" d="M122.473,86.908c-0.003,0.43-0.317,0.396-0.604,0.404
				C122.023,87.107,122.217,86.96,122.473,86.908z"/>
			<path fill-rule="evenodd" clip-rule="evenodd" d="M48.847,98.908c-0.288-0.019-0.528-0.094-0.552-0.439
				C48.53,98.55,48.726,98.682,48.847,98.908z"/>
			<path fill-rule="evenodd" clip-rule="evenodd" d="M56.616,85.331c-0.004-0.271-0.009-0.542-0.014-0.813
				C56.681,84.787,56.702,85.061,56.616,85.331z"/>
			<path fill-rule="evenodd" clip-rule="evenodd" d="M47.772,94.486c0.356-0.003,0.35,0.243,0.341,0.49
				C47.931,94.861,47.82,94.697,47.772,94.486z"/>
			<path fill-rule="evenodd" clip-rule="evenodd" d="M29.161,49.844c-0.234,0.006-0.351-0.102-0.334-0.338
				C28.994,49.563,29.105,49.678,29.161,49.844z"/>
			<path fill-rule="evenodd" clip-rule="evenodd" d="M44.446,95.295c0.015,0.252-0.094,0.422-0.335,0.498
				C44.156,95.584,44.261,95.412,44.446,95.295z"/>
			<path fill-rule="evenodd" clip-rule="evenodd" d="M24.538,46.457c-0.157,0.066-0.295,0.061-0.381-0.113
				C24.286,46.378,24.458,46.258,24.538,46.457z"/>
			<path fill-rule="evenodd" clip-rule="evenodd" d="M109.016,89.582c-0.175,0.018-0.349,0.029-0.523,0.047
				C108.659,89.531,108.832,89.503,109.016,89.582z"/>
			<path fill-rule="evenodd" clip-rule="evenodd" d="M56.673,86.28c-0.014-0.176-0.029-0.345-0.045-0.519
				C56.726,85.926,56.744,86.098,56.673,86.28z"/>
			<path fill-rule="evenodd" clip-rule="evenodd" d="M45.699,95.744c-0.231-0.004-0.228-0.148-0.192-0.314
				C45.64,95.492,45.685,95.613,45.699,95.744z"/>
			<path fill-rule="evenodd" clip-rule="evenodd" d="M29.534,50.311c-0.194-0.004-0.213-0.145-0.219-0.293
				C29.39,50.113,29.462,50.21,29.534,50.311z"/>
			<path fill-rule="evenodd" clip-rule="evenodd" d="M48.19,66.314c-0.161,0.018-0.314,0.014-0.39-0.173
				C47.955,66.142,48.1,66.174,48.19,66.314z"/>
			<path fill-rule="evenodd" clip-rule="evenodd" d="M26.631,96.988c0.155-0.003,0.302,0.01,0.278,0.229
				C26.773,97.191,26.678,97.12,26.631,96.988z"/>
			<path fill-rule="evenodd" clip-rule="evenodd" d="M47.81,66.145c-0.149,0.023-0.281,0.002-0.347-0.158
				C47.602,65.986,47.738,65.995,47.81,66.145z"/>
			<path fill-rule="evenodd" clip-rule="evenodd" d="M27.992,48.681c-0.152,0-0.296-0.017-0.294-0.223
				C27.835,48.479,27.934,48.555,27.992,48.681z"/>
			<path fill-rule="evenodd" clip-rule="evenodd" d="M33.808,100.455c0.132-0.174,0.243-0.139,0.336,0.039
				C34.031,100.48,33.917,100.469,33.808,100.455z"/>
			<path fill-rule="evenodd" clip-rule="evenodd" d="M120.825,87.909c-0.022,0.226-0.161,0.229-0.332,0.177
				C120.565,87.953,120.692,87.926,120.825,87.909z"/>
			<path fill-rule="evenodd" clip-rule="evenodd" d="M47.483,97.793c-0.062-0.061-0.121-0.116-0.182-0.174
				C47.362,97.677,47.422,97.732,47.483,97.793z"/>
			<path fill-rule="evenodd" clip-rule="evenodd" d="M42.585,97.75c-0.003,0.114-0.063,0.176-0.176,0.185
				C42.466,97.873,42.524,97.811,42.585,97.75z"/>
			<path fill-rule="evenodd" clip-rule="evenodd" d="M123.349,86.121c-0.059,0.059-0.12,0.115-0.178,0.176
				C123.229,86.236,123.289,86.18,123.349,86.121z"/>
			<path fill-rule="evenodd" clip-rule="evenodd" d="M42.421,97.916c-0.005,0.115-0.063,0.177-0.179,0.186
				C42.301,98.041,42.362,97.98,42.421,97.916z"/>
			<path fill-rule="evenodd" clip-rule="evenodd" d="M48.264,95.154c0.056,0.063,0.112,0.123,0.171,0.186
				C48.376,95.277,48.319,95.217,48.264,95.154z"/>
			<path fill-rule="evenodd" clip-rule="evenodd" d="M48.114,94.979c0.055,0.063,0.107,0.123,0.161,0.185
				C48.222,95.102,48.169,95.041,48.114,94.979z"/>
			<path fill-rule="evenodd" clip-rule="evenodd" d="M26.912,97.213c0.126-0.027,0.183,0.03,0.175,0.156
				C27.028,97.318,26.971,97.264,26.912,97.213z"/>
			<path fill-rule="evenodd" clip-rule="evenodd" d="M41.748,98.576c-0.003,0.12-0.059,0.18-0.186,0.152
				C41.624,98.678,41.687,98.627,41.748,98.576z"/>
			<path fill-rule="evenodd" clip-rule="evenodd" d="M123.095,94.693c-0.017-0.107,0.033-0.174,0.13-0.209
				C123.182,94.554,123.137,94.623,123.095,94.693z"/>
			<path fill-rule="evenodd" clip-rule="evenodd" d="M29.315,50.018c-0.054-0.061-0.109-0.118-0.163-0.177
				C29.206,49.898,29.262,49.957,29.315,50.018z"/>
			<path fill-rule="evenodd" clip-rule="evenodd" d="M46.965,97.291c-0.054-0.057-0.107-0.113-0.163-0.171
				C46.857,97.178,46.911,97.234,46.965,97.291z"/>
			<path fill-rule="evenodd" clip-rule="evenodd" d="M28.83,49.512c-0.056-0.058-0.113-0.119-0.172-0.178
				C28.717,49.393,28.774,49.454,28.83,49.512z"/>
			<path fill-rule="evenodd" clip-rule="evenodd" d="M28.665,49.34c-0.058-0.057-0.115-0.113-0.17-0.17
				C28.55,49.227,28.606,49.283,28.665,49.34z"/>
			<path fill-rule="evenodd" clip-rule="evenodd" d="M26.451,96.822c0.062,0.055,0.121,0.11,0.182,0.166
				C26.572,96.933,26.513,96.877,26.451,96.822z"/>
			<path fill-rule="evenodd" clip-rule="evenodd" d="M47.142,97.454c-0.059-0.054-0.117-0.108-0.177-0.161
				C47.024,97.346,47.083,97.4,47.142,97.454z"/>
			<path fill-rule="evenodd" clip-rule="evenodd" d="M42.88,97.407c0.03,0.128-0.027,0.179-0.148,0.175
				C42.78,97.524,42.831,97.467,42.88,97.407z"/>
			<path fill-rule="evenodd" clip-rule="evenodd" d="M42.737,97.578c0.009,0.117-0.05,0.178-0.164,0.184
				C42.626,97.7,42.681,97.641,42.737,97.578z"/>
		</g>
		<g>
			<g>
				<path fill-rule="evenodd" clip-rule="evenodd" fill="#FFFFFF" d="M61.163,99.416c0.481,0.393,0.865,0.113,1.248-0.178
					c2.514-1.905,3.82-4.533,4.52-7.527c0.582-2.498,0.729-5.045,0.806-7.594c0.246-7.843,0.304-15.689,0.169-23.537
					c-0.063-3.512,0.524-6.836,2.438-9.84c1.774-2.787,4.23-4.73,7.354-5.809c1.248-0.43,1.564-0.227,1.579,1.108
					c0.052,4.243,0.084,8.481,0.088,12.727c0.012,7.569,0.015,15.14-0.012,22.71c-0.009,2.404-0.271,4.793-0.71,7.161
					c-0.888,4.778-3.79,7.948-8.104,9.813c-4.23,1.829-8.706,1.97-13.214,1.26c-0.82-0.129-1.708-0.104-2.394-0.711
					c0.529-0.396,0.777,0.281,1.222,0.322c1.326,0.108,2.646,0.334,3.974,0.463C60.489,99.822,60.986,99.999,61.163,99.416z"/>
				<path fill-rule="evenodd" clip-rule="evenodd" fill="#FFFFFF" d="M46.483,96.793c0.047,0.035,0.09,0.068,0.137,0.107
					c0.104,0.327,0.303,0.541,0.667,0.563l0.008,0.006c0.023,0.346,0.264,0.421,0.552,0.439c0,0,0.002-0.01,0.002-0.008
					c0.003,0.408,0.301,0.391,0.581,0.399c0.029,0.048,0.048,0.1,0.052,0.152c-0.111,0.155,0.139,0.437-0.256,0.517
					c-1.834,0.383-3.695,0.611-5.553,0.639c-3.153,0.049-6.311,0.148-9.461-0.123l-0.032,0.031l-0.036-0.021
					c-0.093-0.178-0.204-0.213-0.336-0.039c-0.061-0.006-0.117-0.013-0.176-0.021c-0.151-0.231-0.372-0.352-0.626-0.48
					c-0.942-0.478-2.058-0.434-2.958-1.023c-0.584-0.385-1.153-0.832-1.92-0.778v0.005c-0.103-0.591-0.471-0.822-1.045-0.773
					c0,0,0.004-0.012,0.004-0.014c0.008-0.126-0.049-0.184-0.175-0.156l-0.003,0.004c0.023-0.219-0.123-0.231-0.278-0.229h0.002
					c-0.061-0.056-0.12-0.111-0.182-0.166c0,0,0.003,0.008,0.004,0.008c-0.028-0.852-0.467-1.301-1.319-1.342l-0.005-0.006
					c0.041-0.262-0.08-0.457-0.22-0.676c-0.861-1.369-1.826-2.711-2.154-4.322c-0.408-2.004-0.896-4.011-0.782-6.091
					c0.016-0.27,0.149-0.639-0.304-0.738c-0.016-0.999-0.051-1.995-0.051-2.995c0-10.49,0.009-20.976,0.016-31.464
					c0-0.223,0.021-0.442,0.029-0.665c0.254,0.254,0.143,0.576,0.147,0.867c0.015,0.984,0.005,1.967,0.005,3.115
					c0.239-0.422,0.162-0.704,0.163-0.969c0.008-1.6,0.029-3.199-0.01-4.798c-0.015-0.612,0.233-0.726,0.778-0.735
					c0.519-0.012,0.877,0.513,1.412,0.332h-0.002c0.086,0.174,0.224,0.18,0.381,0.113c0,0,0.015,0.006,0.015,0.008
					c0.016,0.197-0.486,0.68,0.251,0.48c0.289-0.08,0.508,0.027,0.641,0.227c0.243,0.367,0.547,0.406,0.919,0.291
					c0.239,0.608,0.696,0.922,1.337,0.986l-0.002,0.009c-0.002,0.206,0.142,0.223,0.294,0.223l-0.005-0.005
					c0.005,0.339,0.16,0.516,0.511,0.49l-0.004,0.004c0.056,0.057,0.112,0.113,0.17,0.17l-0.006-0.006
					c0.059,0.059,0.116,0.12,0.172,0.178c0,0-0.002-0.008-0.003-0.006c-0.017,0.236,0.1,0.344,0.334,0.338
					c0,0-0.009-0.004-0.009-0.003c0.054,0.059,0.109,0.116,0.163,0.177l0,0c0.006,0.148,0.024,0.289,0.219,0.293l0.007-0.006
					c-0.101,0.381,0.103,0.52,0.442,0.547l-0.001-0.004c0.028,0.377-0.129,0.789,0.187,1.111c0.852,0.867,1.191,1.984,1.647,3.072
					c0.78,1.853,0.974,3.777,0.979,5.734c0.023,6.182,0.008,12.363,0.011,18.543c0,0.277-0.004,0.555,0.028,0.83
					c0.224,1.955,0.208,3.906,0.002,5.863c-0.122,1.162,0.368,2.262,0.428,3.406c0,0.027,0.093,0.048,0.142,0.071
					c0.008,0.114,0.019,0.228,0.028,0.343c-0.15,0.453-0.304,0.908,0.098,1.321c0.024,0.112,0.048,0.229,0.071,0.346
					c-0.04,0.07-0.124,0.146-0.115,0.21c0.188,1.158,0.308,2.34,0.63,3.467c0.129,0.445,0.29,1.057,0.865,1.292v0.003
					c0.041,1.14,1.447,2.824,2.499,2.991l-0.003-0.003c0.696,0.664,1.523,0.781,2.419,0.557c0.433-0.108,1.061-0.009,0.973-0.779
					l0.03-0.018c0.431,0.126,0.606-0.09,0.647-0.484l0.013,0.004c0.127,0.027,0.183-0.032,0.186-0.152h-0.009
					c0.414,0.091,0.446-0.223,0.521-0.492l-0.017,0.018c0.115-0.009,0.173-0.07,0.179-0.186c0,0-0.015,0.019-0.012,0.019
					c0.112-0.009,0.172-0.07,0.176-0.185l-0.012,0.012c0.114-0.006,0.173-0.066,0.164-0.184l0.039,0.055l-0.045-0.051
					c0.121,0.004,0.179-0.047,0.148-0.175l0.01-0.036c0.733,0.092,0.653-0.469,0.724-0.908l0.003-0.002
					c0.553,0.067,0.522-0.301,0.495-0.668l0,0c0.241-0.076,0.35-0.246,0.335-0.498h-0.001c0.385-0.166,0.73-0.041,1.069,0.137
					l-0.025,0.041l0.018-0.043c-0.035,0.166-0.039,0.311,0.192,0.314l-0.014,0.049c0,0,0.023-0.045,0.021-0.045
					c0.052,0.713,0.319,1.248,1.102,1.369l-0.006,0.003c0.056,0.058,0.109,0.114,0.163,0.171v0.002
					c0.06,0.053,0.118,0.107,0.177,0.161c0.055,0.056,0.108,0.108,0.16,0.165C46.362,96.677,46.422,96.732,46.483,96.793z"/>
				<path fill-rule="evenodd" clip-rule="evenodd" fill="#FFFFFF" d="M82.527,62.625c-0.022-4.005,0.287-7.924,2.163-11.543
					c1.936-3.73,4.924-5.842,9.162-6.254c2.853-0.273,5.701-0.268,8.555-0.268c7.346-0.002,14.693,0.044,22.041,0.072
					c1.883,0.008,2.05,0.223,1.486,2.028c-1.227,3.94-3.463,7.028-7.414,8.634c-1.273,0.516-2.606,0.744-3.977,0.727
					c-6.459-0.07-12.917-0.09-19.375,0.18c-2.048,0.084-4.089,0.23-6.076,0.805c-2.934,0.85-5.098,2.598-6.424,5.361
					C82.627,62.457,82.575,62.539,82.527,62.625z"/>
				<path fill-rule="evenodd" clip-rule="evenodd" fill="#FFFFFF" d="M81.06,98.051c1.002-4.497,4.954-8.758,9.492-9.244
					c2.281,0.068,4.563,0.016,6.851,0.141c3.445,0.183,6.897-0.262,10.35-0.137c0.139,0.004,0.285,0.015,0.411-0.026
					c0.088-0.029,0.148-0.141,0.222-0.217c1.51-0.073,3.021-0.171,4.532-0.222c1.683-0.051,3.332-0.326,4.971-0.693
					c0.588-0.035,1.247,0.123,1.602-0.572l0.004,0.006c0.171,0.053,0.31,0.049,0.332-0.177l0.003,0.009
					c0.51,0.078,0.917-0.02,1.038-0.604l0.003-0.002c0.286-0.008,0.601,0.025,0.604-0.404l0.049,0.008c0,0-0.047-0.016-0.047-0.015
					c0.498,0.097,0.672-0.181,0.698-0.616l-0.002,0.012c0.058-0.061,0.119-0.117,0.178-0.176l-0.008,0.002
					c0.497-0.08,0.833-0.3,0.775-0.871l0.017-0.018c0.94,0.17,0.49-0.617,0.669-0.973l0.029,0.064l-0.032-0.062
					c0.124,0.032,0.345-0.073,0.363,0.087c0.163,1.361-0.01,2.725-0.437,3.98c-0.159,0.465-0.366,0.998-0.271,1.363
					c0.298,1.139-0.198,2.078-0.75,2.86c-0.465,0.659-0.572,1.228-0.485,1.937l0.006-0.008c-0.097,0.035-0.146,0.102-0.13,0.209
					c0,0,0.007,0.004,0.007,0.001c-0.454,0.105-0.544,0.427-0.492,0.833l-0.031-0.045l0.025,0.047
					c-0.387,0.029-0.554,0.332-0.728,0.609c-0.44,0.697-1.029,1.262-1.599,1.848c-0.396,0.402-1.027,0.574-1.188,1.207l-0.004-0.049
					c0,0,0,0.05,0,0.049c-0.964,0.123-1.772,0.877-2.835,0.662c-0.249-0.052-0.179,0.329-0.208,0.531
					c-0.711,0.195-1.434,0.328-2.17,0.389c-0.786-0.415-1.563,0.036-2.349,0.035c-9.194-0.017-18.39-0.011-27.587-0.014
					C81.263,99.797,81.132,99.672,81.06,98.051z"/>
				<path fill-rule="evenodd" clip-rule="evenodd" fill="#FFFFFF" d="M98.598,66.947c4.074,0,8.151-0.031,12.228,0.012
					c3.361,0.037,6.376,1.193,8.953,3.309c1.963,1.611,3.607,3.521,4.273,6.088c0.392,1.507,0.093,1.959-1.455,1.964
					c-6.075,0.017-12.149,0.038-18.223,0.015c-2.827-0.012-5.662,0.141-8.481-0.162c-5.199-0.553-10.406-4.105-11.927-9.031
					c-0.064-0.211-0.144-0.422-0.193-0.639c-0.238-1.041,0.035-1.468,1.1-1.555c0.908-0.068,1.827-0.053,2.741-0.053
					c3.661-0.004,7.322-0.001,10.984-0.001C98.598,66.912,98.598,66.932,98.598,66.947z"/>
				<path fill-rule="evenodd" clip-rule="evenodd" fill="#FFFFFF" d="M61.163,99.416c-0.177,0.583-0.674,0.406-1.037,0.369
					c-1.328-0.129-2.647-0.354-3.974-0.463c-0.445-0.041-0.692-0.719-1.222-0.322c-1.133,0.053-2.077-0.502-3.029-0.984
					c-1.355-0.693-2.611-1.537-3.616-2.709c0.552-1.074-0.324-0.875-0.869-0.973l0.018,0.006c-0.059-0.063-0.115-0.123-0.171-0.186
					l0.012,0.009c-0.054-0.062-0.106-0.122-0.161-0.185l-0.001-0.002c0.009-0.247,0.016-0.493-0.341-0.49l0.002,0.002
					c-0.019-0.73,0.104-1.52-0.81-1.868c-0.076-0.029-0.113-0.187-0.147-0.29c-0.25-0.732-0.499-1.461-0.757-2.186
					c-0.217-0.604-0.032-1.342-0.591-1.83c-0.236-0.568-0.328-1.186-0.342-1.783c-0.14-6.455-0.029-12.91,0.01-19.363
					c0.491-1.486,0.221-1.484,2.167-1.173c0.054,0.009,0.11-0.003,0.165-0.005l-0.007-0.004c0.065,0.16,0.197,0.182,0.347,0.158
					l-0.009-0.003c0.075,0.187,0.229,0.19,0.39,0.173c4.474,2.211,7.076,5.824,8.007,10.689c0.1,0.514,0.201,1.035,0.222,1.557
					c0.079,1.984,0.125,3.973,0.184,5.957c0.005,0.271,0.01,0.543,0.014,0.813c0.003,0.144,0.008,0.286,0.012,0.431
					c0.016,0.174,0.031,0.343,0.045,0.519c0.02,0.181,0.037,0.366,0.055,0.55c-0.191,0.244-0.086,0.533-0.118,0.801
					c-0.107,0.94,0.372,1.889,0.138,2.786c-0.332,1.257,0.646,2.171,0.68,3.349c0.015,0.58,0.246,1.406,0.909,1.843l-0.012-0.011
					c-0.06,1.184,0.885,1.93,1.29,2.908c0.075,0.182,0.341,0.125,0.533,0.098l-0.024,0.034l0.019-0.036
					c-0.048,0.279-0.044,0.525,0.341,0.52c0.098,0.088,0.195,0.178,0.292,0.27c0.209,0.311,0.619,0.625-0.159,0.896
					c0.587,0.271,1.062,0.176,1.535,0.131L61.163,99.416z"/>
				<path fill-rule="evenodd" clip-rule="evenodd" fill="#FFFFFF" d="M32.406,88.479c-0.049-0.023-0.142-0.044-0.142-0.071
					c-0.06-1.145-0.55-2.244-0.428-3.406c0.206-1.957,0.222-3.908-0.002-5.863c-0.032-0.275-0.028-0.553-0.028-0.83
					c-0.003-6.18,0.013-12.361-0.011-18.543c-0.006-1.957-0.199-3.882-0.979-5.734c-0.456-1.088-0.796-2.205-1.647-3.072
					c-0.315-0.322-0.158-0.734-0.187-1.111c1.605,1.963,2.403,4.268,2.837,6.727c0.379,2.146,0.17,4.314,0.183,6.475
					c0.023,4.355,0.057,8.711,0.039,13.067C32.024,80.244,32.31,84.357,32.406,88.479z"/>
				<path fill-rule="evenodd" clip-rule="evenodd" fill="#FFFFFF" d="M81.06,98.051c0.072,1.621,0.203,1.746,1.877,1.746
					c9.197,0.003,18.393-0.003,27.587,0.014c0.785,0.001,1.563-0.45,2.349-0.035c-2.508,0.373-5.034,0.232-7.554,0.238
					c-7.679,0.018-15.361-0.015-23.04-0.023c-0.027,0-0.056,0-0.08,0C80.616,99.961,80.382,99.563,81.06,98.051z"/>
				<path fill-rule="evenodd" clip-rule="evenodd" fill="#FFFFFF" d="M33.212,99.484c3.15,0.271,6.308,0.172,9.461,0.123
					c1.857-0.027,3.719-0.256,5.553-0.639c0.395-0.08,0.145-0.361,0.256-0.517c0.219-0.052,0.312,0.185,0.493,0.216
					c-0.204,0.156-0.388,0.402-0.616,0.455c-0.806,0.199-1.62,0.384-2.44,0.469c-3.749,0.398-7.506,0.49-11.267,0.208
					C34.164,99.765,33.659,99.738,33.212,99.484z"/>
				<path fill-rule="evenodd" clip-rule="evenodd" fill="#FFFFFF" d="M122.219,93.492c-0.087-0.709,0.021-1.277,0.485-1.937
					c0.552-0.782,1.048-1.722,0.75-2.86c-0.095-0.365,0.112-0.898,0.271-1.363c0.427-1.256,0.6-2.619,0.437-3.98
					c-0.019-0.16-0.239-0.055-0.363-0.087c0.2-0.417,0.4-0.831,0.6-1.248C124.388,85.989,124.209,89.916,122.219,93.492z"/>
				<path fill-rule="evenodd" clip-rule="evenodd" fill="#FFFFFF" d="M20.671,82.655c0.453,0.1,0.319,0.469,0.304,0.738
					c-0.113,2.08,0.374,4.087,0.782,6.091c0.328,1.611,1.293,2.953,2.154,4.322c0.14,0.219,0.261,0.414,0.22,0.676
					c-1.512-1.562-2.331-3.467-2.745-5.569C20.978,86.848,20.688,84.768,20.671,82.655z"/>
				<path fill-rule="evenodd" clip-rule="evenodd" fill="#FFFFFF" d="M108.385,88.567c-0.073,0.076-0.134,0.188-0.222,0.217
					c-0.126,0.041-0.272,0.03-0.411,0.026c-3.452-0.125-6.904,0.319-10.35,0.137c-2.288-0.125-4.57-0.072-6.851-0.141
					c0.248-0.152,0.528-0.168,0.803-0.169c5.38-0.005,10.759-0.006,16.138-0.009c0.175-0.018,0.349-0.029,0.523-0.047
					C108.138,88.578,108.262,88.573,108.385,88.567z"/>
				<path fill-rule="evenodd" clip-rule="evenodd" fill="#FFFFFF" d="M57.336,94.608c-0.663-0.437-0.895-1.263-0.909-1.843
					c-0.033-1.178-1.011-2.092-0.68-3.349c0.234-0.897-0.245-1.846-0.138-2.786c0.032-0.268-0.073-0.557,0.118-0.801
					C55.885,88.825,56.29,91.777,57.336,94.608z"/>
				<path fill-rule="evenodd" clip-rule="evenodd" fill="#FFFFFF" d="M27.128,97.151c0.767-0.054,1.336,0.394,1.92,0.778
					c0.9,0.59,2.016,0.546,2.958,1.023c0.254,0.129,0.475,0.249,0.626,0.48C30.653,99.018,28.771,98.377,27.128,97.151z"/>
				<path fill-rule="evenodd" clip-rule="evenodd" fill="#FFFFFF" d="M23.159,45.344c-0.535,0.181-0.893-0.344-1.412-0.332
					c-0.544,0.01-0.792,0.123-0.778,0.735c0.039,1.599,0.018,3.198,0.01,4.798c-0.001,0.265,0.076,0.547-0.163,0.969
					c0-1.148,0.01-2.131-0.005-3.115c-0.004-0.291,0.107-0.613-0.147-0.867c-0.041-0.691-0.038-1.377,0.056-2.065
					c0.094-0.681,0.474-0.903,1.106-0.7C22.288,44.914,22.807,44.943,23.159,45.344z"/>
				<path fill-rule="evenodd" clip-rule="evenodd" fill="#FFFFFF" d="M44.47,87.314c0.559,0.488,0.374,1.227,0.591,1.83
					c0.258,0.725,0.507,1.453,0.757,2.186c0.034,0.104,0.071,0.261,0.147,0.29c0.913,0.349,0.791,1.138,0.81,1.868
					c-1.303-1.522-1.7-3.412-2.146-5.281C44.559,87.914,44.521,87.615,44.47,87.314z"/>
				<path fill-rule="evenodd" clip-rule="evenodd" fill="#FFFFFF" d="M118.089,98.193c0.161-0.633,0.793-0.805,1.188-1.207
					c0.569-0.586,1.158-1.15,1.599-1.848c0.174-0.277,0.341-0.58,0.728-0.609C120.735,96.041,119.646,97.344,118.089,98.193z"/>
				<path fill-rule="evenodd" clip-rule="evenodd" fill="#FFFFFF" d="M33.983,95.458c-0.575-0.235-0.736-0.847-0.865-1.292
					c-0.322-1.127-0.441-2.309-0.63-3.467c-0.009-0.063,0.075-0.14,0.115-0.21C32.841,92.207,33.313,93.859,33.983,95.458z"/>
				<path fill-rule="evenodd" clip-rule="evenodd" fill="#FFFFFF" d="M36.482,98.452c-1.052-0.167-2.458-1.852-2.499-2.991
					C34.716,96.541,35.485,97.594,36.482,98.452z"/>
				<path fill-rule="evenodd" clip-rule="evenodd" fill="#FFFFFF" d="M59.147,97.604c-0.192,0.027-0.458,0.084-0.533-0.098
					c-0.405-0.979-1.35-1.725-1.29-2.908C57.933,95.602,58.54,96.598,59.147,97.604z"/>
				<path fill-rule="evenodd" clip-rule="evenodd" fill="#FFFFFF" d="M39.871,98.227c0.088,0.771-0.54,0.671-0.973,0.779
					c-0.896,0.225-1.723,0.107-2.419-0.557C37.654,99.037,38.78,98.883,39.871,98.227z"/>
				<path fill-rule="evenodd" clip-rule="evenodd" fill="#FFFFFF" d="M115.042,99.387c0.029-0.202-0.041-0.583,0.208-0.531
					c1.063,0.215,1.871-0.539,2.835-0.662C117.194,98.906,116.13,99.178,115.042,99.387z"/>
				<path fill-rule="evenodd" clip-rule="evenodd" fill="#FFFFFF" d="M46.47,64.99c-0.055,0.002-0.111,0.014-0.165,0.005
					c-1.946-0.312-1.676-0.313-2.167,1.173c-0.02-0.566-0.199-1.29,0.352-1.584C45.153,64.232,45.851,64.635,46.47,64.99z"/>
				<path fill-rule="evenodd" clip-rule="evenodd" fill="#FFFFFF" d="M24.136,94.488c0.853,0.041,1.291,0.49,1.319,1.342
					C24.912,95.484,24.472,95.037,24.136,94.488z"/>
				<path fill-rule="evenodd" clip-rule="evenodd" fill="#FFFFFF" d="M61.151,99.418c-0.474,0.045-0.948,0.141-1.535-0.131
					c0.778-0.271,0.368-0.586,0.159-0.896C60.331,98.604,60.729,99.023,61.151,99.418z"/>
				<path fill-rule="evenodd" clip-rule="evenodd" fill="#FFFFFF" d="M25.363,46.462c-0.372,0.116-0.676,0.077-0.919-0.29
					c-0.133-0.199-0.352-0.307-0.641-0.227c-0.737,0.199-0.235-0.283-0.251-0.48C24.218,45.688,24.842,45.98,25.363,46.462z"/>
				<path fill-rule="evenodd" clip-rule="evenodd" fill="#FFFFFF" d="M47.417,94.334c0.544,0.098,1.42-0.102,0.869,0.973
					C47.929,95.045,47.62,94.736,47.417,94.334z"/>
				<path fill-rule="evenodd" clip-rule="evenodd" fill="#FFFFFF" d="M45.808,96.117c-0.782-0.121-1.05-0.656-1.102-1.369
					C45.118,95.171,45.509,95.609,45.808,96.117z"/>
				<path fill-rule="evenodd" clip-rule="evenodd" fill="#FFFFFF" d="M44.515,94.432c-0.339-0.178-0.685-0.303-1.069-0.137
					c0.12-0.27,0.274-0.693,0.501-0.66C44.278,93.68,44.392,94.111,44.515,94.432z"/>
				<path fill-rule="evenodd" clip-rule="evenodd" fill="#FFFFFF" d="M26.7,47.449c-0.641-0.064-1.098-0.378-1.337-0.984
					C25.894,46.678,26.324,47.027,26.7,47.449z"/>
				<path fill-rule="evenodd" clip-rule="evenodd" fill="#FFFFFF" d="M26.083,96.383c0.575-0.049,0.943,0.183,1.045,0.773
					C26.718,96.98,26.371,96.721,26.083,96.383z"/>
				<path fill-rule="evenodd" clip-rule="evenodd" fill="#FFFFFF" d="M123.802,83.262c-0.179,0.355,0.271,1.143-0.669,0.973
					C123.288,83.862,123.518,83.545,123.802,83.262z"/>
				<path fill-rule="evenodd" clip-rule="evenodd" fill="#FFFFFF" d="M119.489,87.08c-0.354,0.695-1.014,0.537-1.602,0.572
					C118.421,87.463,118.955,87.268,119.489,87.08z"/>
				<path fill-rule="evenodd" clip-rule="evenodd" fill="#FFFFFF" d="M123.116,84.252c0.058,0.571-0.278,0.791-0.775,0.871
					C122.571,84.807,122.771,84.463,123.116,84.252z"/>
				<path fill-rule="evenodd" clip-rule="evenodd" fill="#FFFFFF" d="M42.613,95.463c-0.07,0.439,0.009,1-0.724,0.908
					C42.077,96.023,42.317,95.721,42.613,95.463z"/>
				<path fill-rule="evenodd" clip-rule="evenodd" fill="#FFFFFF" d="M32.532,90.144c-0.401-0.413-0.248-0.868-0.098-1.321
					C32.466,89.265,32.499,89.701,32.532,90.144z"/>
				<path fill-rule="evenodd" clip-rule="evenodd" fill="#FFFFFF" d="M120.866,86.314c-0.121,0.584-0.528,0.682-1.038,0.604
					C120.174,86.717,120.521,86.516,120.866,86.314z"/>
				<path fill-rule="evenodd" clip-rule="evenodd" fill="#FFFFFF" d="M122.173,85.285c-0.026,0.436-0.2,0.713-0.698,0.616
					C121.661,85.644,121.888,85.43,122.173,85.285z"/>
				<path fill-rule="evenodd" clip-rule="evenodd" fill="#FFFFFF" d="M121.609,94.527c-0.052-0.406,0.038-0.728,0.492-0.833
					C122.015,94.017,121.876,94.309,121.609,94.527z"/>
				<path fill-rule="evenodd" clip-rule="evenodd" fill="#FFFFFF" d="M43.111,94.793c0.027,0.367,0.058,0.735-0.495,0.668
					C42.729,95.2,42.871,94.959,43.111,94.793z"/>
				<path fill-rule="evenodd" clip-rule="evenodd" fill="#FFFFFF" d="M40.549,97.725c-0.041,0.395-0.216,0.61-0.647,0.484
					C40.065,97.979,40.284,97.822,40.549,97.725z"/>
				<path fill-rule="evenodd" clip-rule="evenodd" fill="#FFFFFF" d="M47.287,97.463c-0.364-0.021-0.563-0.235-0.667-0.563
					C46.842,97.09,47.063,97.273,47.287,97.463z"/>
				<path fill-rule="evenodd" clip-rule="evenodd" fill="#FFFFFF" d="M27.499,48.166c-0.351,0.025-0.506-0.151-0.511-0.49
					C27.222,47.771,27.396,47.932,27.499,48.166z"/>
				<path fill-rule="evenodd" clip-rule="evenodd" fill="#FFFFFF" d="M28.983,49.852c-0.339-0.027-0.543-0.166-0.442-0.547
					C28.777,49.415,28.894,49.623,28.983,49.852z"/>
				<path fill-rule="evenodd" clip-rule="evenodd" fill="#FFFFFF" d="M48.43,98.3c-0.28-0.009-0.578,0.009-0.581-0.399
					C48.077,97.983,48.33,98.033,48.43,98.3z"/>
				<path fill-rule="evenodd" clip-rule="evenodd" fill="#FFFFFF" d="M59.483,98.121c-0.385,0.006-0.389-0.24-0.341-0.52
					C59.381,97.689,59.425,97.91,59.483,98.121z"/>
				<path fill-rule="evenodd" clip-rule="evenodd" fill="#FFFFFF" d="M41.259,97.084c-0.074,0.27-0.106,0.583-0.521,0.492
					C40.847,97.346,41.018,97.176,41.259,97.084z"/>
				<path fill-rule="evenodd" clip-rule="evenodd" fill="#FFFFFF" d="M121.473,85.908c-0.003,0.43-0.317,0.396-0.604,0.404
					C121.023,86.107,121.217,85.96,121.473,85.908z"/>
				<path fill-rule="evenodd" clip-rule="evenodd" fill="#FFFFFF" d="M47.847,97.908c-0.288-0.019-0.528-0.094-0.552-0.439
					C47.53,97.55,47.726,97.682,47.847,97.908z"/>
				<path fill-rule="evenodd" clip-rule="evenodd" fill="#FFFFFF" d="M55.616,84.331c-0.004-0.271-0.009-0.542-0.014-0.813
					C55.681,83.787,55.702,84.061,55.616,84.331z"/>
				<path fill-rule="evenodd" clip-rule="evenodd" fill="#FFFFFF" d="M46.772,93.486c0.356-0.003,0.35,0.243,0.341,0.49
					C46.931,93.861,46.82,93.697,46.772,93.486z"/>
				<path fill-rule="evenodd" clip-rule="evenodd" fill="#FFFFFF" d="M28.161,48.844c-0.234,0.006-0.351-0.102-0.334-0.338
					C27.994,48.563,28.105,48.678,28.161,48.844z"/>
				<path fill-rule="evenodd" clip-rule="evenodd" fill="#FFFFFF" d="M43.446,94.295c0.015,0.252-0.094,0.422-0.335,0.498
					C43.156,94.584,43.261,94.412,43.446,94.295z"/>
				<path fill-rule="evenodd" clip-rule="evenodd" fill="#FFFFFF" d="M23.538,45.457c-0.157,0.066-0.295,0.061-0.381-0.113
					C23.286,45.378,23.458,45.258,23.538,45.457z"/>
				<path fill-rule="evenodd" clip-rule="evenodd" fill="#FFFFFF" d="M108.016,88.582c-0.175,0.018-0.349,0.029-0.523,0.047
					C107.659,88.531,107.832,88.503,108.016,88.582z"/>
				<path fill-rule="evenodd" clip-rule="evenodd" fill="#FFFFFF" d="M55.673,85.28c-0.014-0.176-0.029-0.345-0.045-0.519
					C55.726,84.926,55.744,85.098,55.673,85.28z"/>
				<path fill-rule="evenodd" clip-rule="evenodd" fill="#FFFFFF" d="M44.699,94.744c-0.231-0.004-0.228-0.148-0.192-0.314
					C44.64,94.492,44.685,94.613,44.699,94.744z"/>
				<path fill-rule="evenodd" clip-rule="evenodd" fill="#FFFFFF" d="M28.534,49.311c-0.194-0.004-0.213-0.145-0.219-0.293
					C28.39,49.113,28.462,49.21,28.534,49.311z"/>
				<path fill-rule="evenodd" clip-rule="evenodd" fill="#FFFFFF" d="M47.19,65.314c-0.161,0.018-0.314,0.014-0.39-0.173
					C46.955,65.142,47.1,65.174,47.19,65.314z"/>
				<path fill-rule="evenodd" clip-rule="evenodd" fill="#FFFFFF" d="M25.631,95.988c0.155-0.003,0.302,0.01,0.278,0.229
					C25.773,96.191,25.678,96.12,25.631,95.988z"/>
				<path fill-rule="evenodd" clip-rule="evenodd" fill="#FFFFFF" d="M46.81,65.145c-0.149,0.023-0.281,0.002-0.347-0.158
					C46.602,64.986,46.738,64.995,46.81,65.145z"/>
				<path fill-rule="evenodd" clip-rule="evenodd" fill="#FFFFFF" d="M26.992,47.681c-0.152,0-0.296-0.017-0.294-0.223
					C26.835,47.479,26.934,47.555,26.992,47.681z"/>
				<path fill-rule="evenodd" clip-rule="evenodd" fill="#FFFFFF" d="M32.808,99.455c0.132-0.174,0.243-0.139,0.336,0.039
					C33.031,99.48,32.917,99.469,32.808,99.455z"/>
				<path fill-rule="evenodd" clip-rule="evenodd" fill="#FFFFFF" d="M119.825,86.909c-0.022,0.226-0.161,0.229-0.332,0.177
					C119.565,86.953,119.692,86.926,119.825,86.909z"/>
				<path fill-rule="evenodd" clip-rule="evenodd" fill="#FFFFFF" d="M46.483,96.793c-0.062-0.061-0.121-0.116-0.182-0.174
					C46.362,96.677,46.422,96.732,46.483,96.793z"/>
				<path fill-rule="evenodd" clip-rule="evenodd" fill="#FFFFFF" d="M41.585,96.75c-0.003,0.114-0.063,0.176-0.176,0.185
					C41.466,96.873,41.524,96.811,41.585,96.75z"/>
				<path fill-rule="evenodd" clip-rule="evenodd" fill="#FFFFFF" d="M122.349,85.121c-0.059,0.059-0.12,0.115-0.178,0.176
					C122.229,85.236,122.289,85.18,122.349,85.121z"/>
				<path fill-rule="evenodd" clip-rule="evenodd" fill="#FFFFFF" d="M41.421,96.916c-0.005,0.115-0.063,0.177-0.179,0.186
					C41.301,97.041,41.362,96.98,41.421,96.916z"/>
				<path fill-rule="evenodd" clip-rule="evenodd" fill="#FFFFFF" d="M47.264,94.154c0.056,0.063,0.112,0.123,0.171,0.186
					C47.376,94.277,47.319,94.217,47.264,94.154z"/>
				<path fill-rule="evenodd" clip-rule="evenodd" fill="#FFFFFF" d="M47.114,93.979c0.055,0.063,0.107,0.123,0.161,0.185
					C47.222,94.102,47.169,94.041,47.114,93.979z"/>
				<path fill-rule="evenodd" clip-rule="evenodd" fill="#FFFFFF" d="M25.912,96.213c0.126-0.027,0.183,0.03,0.175,0.156
					C26.028,96.318,25.971,96.264,25.912,96.213z"/>
				<path fill-rule="evenodd" clip-rule="evenodd" fill="#FFFFFF" d="M40.748,97.576c-0.003,0.12-0.059,0.18-0.186,0.152
					C40.624,97.678,40.687,97.627,40.748,97.576z"/>
				<path fill-rule="evenodd" clip-rule="evenodd" fill="#FFFFFF" d="M122.095,93.693c-0.017-0.107,0.033-0.174,0.13-0.209
					C122.182,93.554,122.137,93.623,122.095,93.693z"/>
				<path fill-rule="evenodd" clip-rule="evenodd" fill="#FFFFFF" d="M28.315,49.018c-0.054-0.061-0.109-0.118-0.163-0.177
					C28.206,48.898,28.262,48.957,28.315,49.018z"/>
				<path fill-rule="evenodd" clip-rule="evenodd" fill="#FFFFFF" d="M45.965,96.291c-0.054-0.057-0.107-0.113-0.163-0.171
					C45.857,96.178,45.911,96.234,45.965,96.291z"/>
				<path fill-rule="evenodd" clip-rule="evenodd" fill="#FFFFFF" d="M27.83,48.512c-0.056-0.058-0.113-0.119-0.172-0.178
					C27.717,48.393,27.774,48.454,27.83,48.512z"/>
				<path fill-rule="evenodd" clip-rule="evenodd" fill="#FFFFFF" d="M27.665,48.34c-0.058-0.057-0.115-0.113-0.17-0.17
					C27.55,48.227,27.606,48.283,27.665,48.34z"/>
				<path fill-rule="evenodd" clip-rule="evenodd" fill="#FFFFFF" d="M25.451,95.822c0.062,0.055,0.121,0.11,0.182,0.166
					C25.572,95.933,25.513,95.877,25.451,95.822z"/>
				<path fill-rule="evenodd" clip-rule="evenodd" fill="#FFFFFF" d="M46.142,96.454c-0.059-0.054-0.117-0.108-0.177-0.161
					C46.024,96.346,46.083,96.4,46.142,96.454z"/>
				<path fill-rule="evenodd" clip-rule="evenodd" fill="#FFFFFF" d="M41.88,96.407c0.03,0.128-0.027,0.179-0.148,0.175
					C41.78,96.524,41.831,96.467,41.88,96.407z"/>
				<path fill-rule="evenodd" clip-rule="evenodd" fill="#FFFFFF" d="M41.737,96.578c0.009,0.117-0.05,0.178-0.164,0.184
					C41.626,96.7,41.681,96.641,41.737,96.578z"/>
			</g>
		</g>
	</g>
</g>
<g id="Layer_5">
</g>
<g id="grid" display="none">
</g>
</svg>
